<svg id="Layer_1" data-name="Layer 1" xmlns="http://www.w3.org/2000/svg" viewBox="0 0 1208.1 633.65"><defs><style>.cls-1{fill:#231f20;}</style></defs><title>HAYSEYKITCHEN-LogoFinal</title><path class="cls-1" d="M170.51,187.38a3.23,3.23,0,0,1-.75-0.93,3.54,3.54,0,0,0-.75-0.93,20.76,20.76,0,0,1-.25-5.61,35,35,0,0,0,0-5.88v-5.51a31.33,31.33,0,0,1,.5-5.55,13.53,13.53,0,0,1-1.13-6,49.86,49.86,0,0,1,.63-6.19q0.25-2.28.5-4.43a38.45,38.45,0,0,0,.25-4.4c0-.66,0-1.33,0-2a8.06,8.06,0,0,0-.25-2,8.58,8.58,0,0,1-.63-2.57q-0.13-1.36-.13-2.62a9.43,9.43,0,0,0-1.13-6.4A13.87,13.87,0,0,0,163,122a11.78,11.78,0,0,0-2.5-1.78,11.36,11.36,0,0,1-2.5-1.78,10.86,10.86,0,0,0-5.51-1.77,20.25,20.25,0,0,1-2.38.08,8.09,8.09,0,0,0-2.38.33l-4.63.38q-2.38.19-4.88,0.64l-4.76.37a28.68,28.68,0,0,0-7,.39q-3.51.63-7,1.37a56,56,0,0,1-6.26,1,61.07,61.07,0,0,0-6.26,1q-5.26,1.07-10.52,2.12a2.3,2.3,0,0,1-1,.31,2.32,2.32,0,0,0-1,.31c-1.34.57-2.63,1.14-3.88,1.71s-2.55,1.13-3.88,1.7q-3.51,1.43-6.51,2.82a11.85,11.85,0,0,0-5.26,3.24A12.71,12.71,0,0,1,73.11,136,58.66,58.66,0,0,0,67,140.66l-5.88,5.1q-2,2.07-4,3.76t-4,3.75l-0.75.77-0.75.77a8.87,8.87,0,0,0-.88,1.78,5,5,0,0,1-1.13,1.79,6.7,6.7,0,0,1-1.25,1.41,3.25,3.25,0,0,0-1,1.9,5.6,5.6,0,0,1-2.75,3.57,11.53,11.53,0,0,0-1.75,2.8q-2.51,5.82-4.76,11.62t-4,11.84a31,31,0,0,0-1.25,5.53q-0.5,3.52-.88,7t-0.88,7a28,28,0,0,0-.37,5.89q0.12,2.88.12,5.63,0.25,6.51.88,12.63t1.13,12.63a55.61,55.61,0,0,0,4.26,14.95,2.52,2.52,0,0,0,1,1.73,19.83,19.83,0,0,1,2.88,4.2c0.75,1.49,1.54,2.89,2.38,4.2q1.5,2,2.88,3.94a40.89,40.89,0,0,0,3.13,3.92A48.53,48.53,0,0,0,53.71,286a51.78,51.78,0,0,0,5.13,4.6c0.5,0.32,1,.64,1.38,1a16.71,16.71,0,0,0,1.38,1l9,4.92,5.26,3.54a25.1,25.1,0,0,0,6.26,3.22q1.5,0.43,3,1c1,0.37,2,.78,3,1.23a12.91,12.91,0,0,0,3.25,1c1.17,0.19,2.34.42,3.51,0.69q2.75,0.6,5.38,1.08t5.38,1.06a42.78,42.78,0,0,0,14.27,1.33q7.89-.54,15.77-1.15a25.25,25.25,0,0,0,5.13-.9l4.88-1.4a138.49,138.49,0,0,0,20-8.51,12.2,12.2,0,0,1,1.88-.93,8.3,8.3,0,0,1,2.13-.45,5.51,5.51,0,0,0,3.25-1.31q2-1.44,3.88-2.63a23.2,23.2,0,0,0,3.63-2.86,16.33,16.33,0,0,1,3.13-2.32q1.62-.92,3.63-2.12a17,17,0,0,1,1.5-2.16,4.4,4.4,0,0,1,1.5-.78,2.09,2.09,0,0,0,1.25-1.26,4.28,4.28,0,0,1,1.75-1.44,26.83,26.83,0,0,0,2.5-2,35.51,35.51,0,0,0,2.5-2.52c0.66-.74,1.25-1.43,1.75-2.07a12.88,12.88,0,0,1,1.75-1.82q5-5.06,11.52-3.55a28.05,28.05,0,0,1,2.88.79,7.81,7.81,0,0,1,2.63,1.57q0.25,0.72.75,2.67a7.12,7.12,0,0,0,1.5,3.58,4.18,4.18,0,0,1,.5,3.95,49.84,49.84,0,0,1-2.25,4.65,13.24,13.24,0,0,1-3.5,4q-1.75,1.46-3.26,2.63t-3,2.6a41.82,41.82,0,0,0-6.26,6.46,32.72,32.72,0,0,1-4.26,4c-1.34,1-2.38,1.76-3.13,2.34a12.72,12.72,0,0,0-3.38,3.74,33.72,33.72,0,0,0-1.75,3.31,10.11,10.11,0,0,0-1.5,6.92,41.69,41.69,0,0,1,.25,4.61,24,24,0,0,0,.5,4.83,12.06,12.06,0,0,1-1.25,7.39,7.82,7.82,0,0,1,.5,2.45q0.75,5.93-5.26,10.56l-2.25,1a24.54,24.54,0,0,1-7.76.51,19.41,19.41,0,0,1-2.75-.86q-1.26-.51-2.5-1.14a4.76,4.76,0,0,1-2.75-3.25,12.91,12.91,0,0,1-.25-2.61q0-1.38,0-2.63a27,27,0,0,0,.37-2.79q0.12-1.52.12-2.77a5.79,5.79,0,0,1,.13-1.14,1.68,1.68,0,0,0-.13-1.12,8.71,8.71,0,0,1-.63-2.57,8.85,8.85,0,0,0-.63-2.57q-0.5-3.46-3.25-4.21a0.78,0.78,0,0,0-.5.3,18.18,18.18,0,0,1-4.63,2.17q-2.38.71-5.13,1.45-3,.75-6,1.38t-5.76,1.34a28.26,28.26,0,0,1-7.51.58,36.56,36.56,0,0,0-6-.06l-6,.42a50.39,50.39,0,0,1-7.14.48l-7.39,0a18.13,18.13,0,0,1-3-.07,19.11,19.11,0,0,1-3-.58,93.35,93.35,0,0,1-13.52-3.66q-6.51-2.31-13-5.29-4.51-2.07-8.89-4.41t-8.64-5q-2-1.19-3.88-2.39t-3.88-2.4q-1.5-1-3-1.8a12.81,12.81,0,0,1-2.75-2.06,102.47,102.47,0,0,1-8.76-8.59A62,62,0,0,1,26,288c-0.5-.83-1-1.53-1.38-2.11s-0.88-1.28-1.38-2.11a11,11,0,0,0-1-1.49,11.52,11.52,0,0,1-3.38-4q-1.13-2.24-2.13-4.74a41.76,41.76,0,0,1-2-6,42.4,42.4,0,0,0-2-6,48.73,48.73,0,0,1-1.88-7.51q-0.63-3.75-1.13-7.51a40.4,40.4,0,0,1-.63-5.26,34.76,34.76,0,0,0-.63-5,52.84,52.84,0,0,1-.5-10q0-6.38,0-12.77a60.62,60.62,0,0,1,1.5-10.27q0.5-2,.88-4.13t0.88-4.38q0.5-2.5.88-5T13,184.48a62.8,62.8,0,0,1,2.25-10,22.77,22.77,0,0,1,1.25-3l1.5-3a41.11,41.11,0,0,0,3.51-5.79q1.5-3,3-6.29a55.08,55.08,0,0,1,4-7.19,75.41,75.41,0,0,1,5-6.71,41.53,41.53,0,0,1,5.51-6.36q3-2.81,6.26-5.65,2.75-2.07,5.38-4.4t5.38-4.67a16.44,16.44,0,0,1,3.26-2.11q2-1.57,3.88-2.89a24.91,24.91,0,0,0,3.63-3.14,8.17,8.17,0,0,1,1.63-1.31c0.58-.36,1.21-0.71,1.88-1.08a6.69,6.69,0,0,1,3.76-1.66,22.8,22.8,0,0,1,2.75-1,21.84,21.84,0,0,0,2.75-1l9-3.44a1,1,0,0,0,.63-0.16,1,1,0,0,1,.63-0.16,8.73,8.73,0,0,0,5.76-2.31,3.34,3.34,0,0,1,1.38-.83c0.58-.2,1.13-0.4,1.63-0.59a36.35,36.35,0,0,1,4-1l4-.74a20.07,20.07,0,0,1,7-.69l4.76-.32a6.42,6.42,0,0,0,2.25-.4,10.44,10.44,0,0,1,2.13-.78,13.93,13.93,0,0,1,1.88-.26q4.25-.8,8.14-1.22t8.14-1a2.12,2.12,0,0,1,1.25-.35q3.5,0,7.26-.22t7.51-.27a18.39,18.39,0,0,0,3.13,0,19.26,19.26,0,0,1,3.13,0l6.76-.13q3.25-.06,6.76-0.15L179,92.66a10.09,10.09,0,0,0,2.38.26,15,15,0,0,0,2.63-.77,3.66,3.66,0,0,1,2.13.91A23.28,23.28,0,0,1,188,95a18.82,18.82,0,0,1,3,7.2q0.5,3.21.75,6.31a21.41,21.41,0,0,1-.5,6.44,12.21,12.21,0,0,0-.37,3.79q0.12,1.74.37,3.72a7.4,7.4,0,0,0,.13,1.24,7.83,7.83,0,0,1,.12,1.24,38.88,38.88,0,0,0-.12,5.4q0.12,2.62.37,5.34v2a16.08,16.08,0,0,0-.5,3.81,12.06,12.06,0,0,0,.5,3.45q0.25,2.48.25,4.73a10.1,10.1,0,0,1-1,4.36,10.49,10.49,0,0,0,0,3.26,15,15,0,0,1,.5,3.7q0,1.75,0,3.76a42.86,42.86,0,0,1-.12,7.27q-0.38,3.8-.88,7.35a18.53,18.53,0,0,1-.13,2.27,6.84,6.84,0,0,0,.13,2.24,71.59,71.59,0,0,1,.88,9.42q0.12,4.75.37,9.73,0,2.5-.12,4.9a27.87,27.87,0,0,0,.12,4.62,18.4,18.4,0,0,1-.37,3.79,17.25,17.25,0,0,0-.37,3.55q0.5,1.2.88,2.29c0.25,0.73.54,1.49,0.88,2.29a2.7,2.7,0,0,0,2.5,2,8.32,8.32,0,0,0,2.75.21,2.89,2.89,0,0,0,2.25-1,18.07,18.07,0,0,0,3.26-2.86q9-7.51,16.78-14.94a96.39,96.39,0,0,0,8.76-8.56l4.38-4.42a46.69,46.69,0,0,1,4.88-4.24,18.37,18.37,0,0,0,3.25-2.92q6-5.52,11.27-11.35t10.27-12a20.16,20.16,0,0,0,4.26-7.59q0.5-2.07,1-4.39c0.33-1.55.67-3,1-4.4a2.12,2.12,0,0,0,0-2q-0.5-1.43-.75-2.4a14.16,14.16,0,0,0,1.13-4.66,18.38,18.38,0,0,0-.37-4.71v-1.75q0-4.25-.12-8.75t-0.13-9q0.25-5.79.5-11.84T270.41,91a13.4,13.4,0,0,1,.12-1.9,14,14,0,0,0,.12-1.9,9.79,9.79,0,0,1,1.88-5.52,11.17,11.17,0,0,1,6.14-4.12,19.27,19.27,0,0,1,3.38-1.11,18.52,18.52,0,0,0,3.38-1.11,2.1,2.1,0,0,1,1,.11l5.26,3.74q1.25,4.32,1.63,6.4a27.36,27.36,0,0,1,.37,4.83,15.25,15.25,0,0,0-.75,1.86,6.12,6.12,0,0,0-1,3.65v1.63a4.76,4.76,0,0,0,.25,1.59,77.57,77.57,0,0,1,0,8.76c0,1.17,0,2.33.13,3.49a7.63,7.63,0,0,0,.88,3.13,8.35,8.35,0,0,1,.5,3.18V120a8.75,8.75,0,0,1-.25,2,51.66,51.66,0,0,0-.5,7.21v7.39a21.38,21.38,0,0,0-.13,4,16.24,16.24,0,0,0,.63,3.67,18.29,18.29,0,0,0-.63,3.35,26.91,26.91,0,0,1-.37,2.81v0.75a66.21,66.21,0,0,1,.63,10.67q-0.13,5.28-.63,10.86a34,34,0,0,0,0,8.26q0.5,4.19.63,8.67t0.13,9a23.55,23.55,0,0,0-.25,3.29v3.25c0,1.84,0,3.64-.13,5.4s-0.21,3.58-.37,5.44q-0.25,5.55,0,10.77,0.25,2,.37,3.58a10.06,10.06,0,0,1-.37,3.44v1.25a29.86,29.86,0,0,1,.25,6.6,43.44,43.44,0,0,0,0,6.64,9.28,9.28,0,0,1,0,3,41.7,41.7,0,0,0-.13,5.65q0.13,2.86.38,5.83a6,6,0,0,1-.25,1.79,5.85,5.85,0,0,0-.25,1.79,4.33,4.33,0,0,0,.37,1.82,2.81,2.81,0,0,1,.13,1.86,3.74,3.74,0,0,0-.25,1.54q-0.25,1.54-.5,3.08a17.54,17.54,0,0,0-.25,2.79q0.25,4.22.38,8.21t0.12,8.24q0.25,4.22.25,8.1t0.25,8.1a30.92,30.92,0,0,1-.25,3.92,39.24,39.24,0,0,1-.75,4c-0.17,1.19-.34,2.3-0.5,3.33a33.17,33.17,0,0,1-.75,3.36,1.83,1.83,0,0,1,.63,1,1.8,1.8,0,0,0,.63,1,2.71,2.71,0,0,1,0,2.75q-0.5,1.32-1,2.4t-1,2.4q-0.75,1.36-1.63,2.74a8.69,8.69,0,0,1-2.13,2.31q-2.76.9-5.51,1.54a10.3,10.3,0,0,1-5.51-.22,14.5,14.5,0,0,1-2.25-2.44,17,17,0,0,1-1.75-3,21,21,0,0,1-1.13-4,11.19,11.19,0,0,1,.13-4.4,8,8,0,0,0-.25-5.22,6.79,6.79,0,0,1-.5-2.69,18.65,18.65,0,0,1,.25-3,25.93,25.93,0,0,0,.75-6.11,35.44,35.44,0,0,0-.5-5.94,27.58,27.58,0,0,1-.13-4.62,35.27,35.27,0,0,1,.63-5,8.34,8.34,0,0,0,.25-1.91,11.71,11.71,0,0,1,.25-2.16A7.76,7.76,0,0,1,271,289a2,2,0,0,0-.13-1.24,4.48,4.48,0,0,1-.25-2.59,15,15,0,0,1,.75-2.73,11.29,11.29,0,0,1-.75-5.4,26.65,26.65,0,0,0,.13-4.4,16.23,16.23,0,0,1,.37-4.43,2.14,2.14,0,0,0,.13-1.27,8.36,8.36,0,0,1-.13-1.48,38.1,38.1,0,0,1-.63-5.17,33.09,33.09,0,0,0-.63-4.92,21.19,21.19,0,0,1,.25-3.79,44,44,0,0,0,1-14.91l-0.75-7.41a5,5,0,0,1,.25-1.54,19.42,19.42,0,0,0,.5-2.07,0.61,0.61,0,0,1-.25-0.47,1.76,1.76,0,0,0-.25-0.72,24,24,0,0,1-.25-11.48,3.66,3.66,0,0,0-1-3.62,7.15,7.15,0,0,1-.88-1.63,18.5,18.5,0,0,0-.88-1.88,8.25,8.25,0,0,1-.88-1.51,8.7,8.7,0,0,0-.88-1.51q-0.5-1.43-3-1.59a11.81,11.81,0,0,0-3.76.63,8.91,8.91,0,0,0-3.26,2.06c-0.5.57-1,1.09-1.5,1.57s-1,1-1.5,1.58q-4,4-8,7.93t-8.26,7.68q-2,1.75-4.26,3.53t-4.26,3.28a48.19,48.19,0,0,0-6,5.73l-7.51,7.64a33.71,33.71,0,0,1-2.75,2.57q-5,4.08-9.64,8.47t-8.89,9.1a45.6,45.6,0,0,1-3.5,3.5,34.62,34.62,0,0,1-4,3,19.42,19.42,0,0,0-2.5,2.26,12.7,12.7,0,0,1-3,2.81q-1.75,1.18-3.76,2.37a4.2,4.2,0,0,1-1.5.65l-4.26.41a2,2,0,0,1-2.25-1.79,11.16,11.16,0,0,1-.5-4q0.24-1.77.37-3.29t0.37-3.29v-2a8.09,8.09,0,0,1-1-3.79,16.45,16.45,0,0,1,.5-3.93,17.49,17.49,0,0,0,.5-4.18v-4.13a19.54,19.54,0,0,1,0-6.26q0-6.76.13-13.66T169,214.07v-2.5a54.49,54.49,0,0,0-.5-16.48,5.4,5.4,0,0,0-.25-1.73,9,9,0,0,1,0-3.13A14.45,14.45,0,0,1,170.51,187.38ZM16.77,219.27a4,4,0,0,1,1-.76,3.88,3.88,0,0,0,1-.76,0.62,0.62,0,0,0,0-.75c0-.17-0.17-0.25-0.5-0.25a2.37,2.37,0,0,0-1.5,1.26v1.25Zm3,0.48a1.45,1.45,0,0,0-1,1.13,2.51,2.51,0,0,1-.25,1.13c0,0.5.33,0.75,1,.74l0.75-.76A3,3,0,0,0,19.78,219.74Zm-0.75,16a3,3,0,0,0,1.13-.76,8.09,8.09,0,0,0,.12-2,1.39,1.39,0,0,0-1.75.26A14.7,14.7,0,0,0,19,235.78Zm3,7.74a12.56,12.56,0,0,1-.75-1.75,2.4,2.4,0,0,0-1-1.24H20l-0.25.25,0.75,3A3.49,3.49,0,0,0,22,243.51ZM28.79,271a1.14,1.14,0,0,0-1.25-.74,4.07,4.07,0,0,0-1,.76c-0.17.34,0.17,0.84,1,1.49A4.09,4.09,0,0,0,28.79,271Zm58.34,45.44a2,2,0,0,1,.25.86,1.93,1.93,0,0,0,.25.86,0.37,0.37,0,0,0,.25.36,0.38,0.38,0,0,1,.25.36,2.46,2.46,0,0,0,.37.61,2.88,2.88,0,0,1,.38.61,0.68,0.68,0,0,1,.25.36,1.6,1.6,0,0,0,.5.6,4,4,0,0,1,1-2.05,5.24,5.24,0,0,1,1.25-1.82q-0.5-1.48-1-1.45a7.42,7.42,0,0,1-1.75.34A11.43,11.43,0,0,0,87.13,316.42Zm16.28-208.71a8.12,8.12,0,0,1,1,1.07,1.69,1.69,0,0,0,.75.58l0.75,0v-0.5c0-.66-0.25-1-0.75-1A3.28,3.28,0,0,0,103.41,107.71ZM126.69,324l-0.75-.7-0.25.27-0.25.27a1.31,1.31,0,0,0,.5,1c0,0.17.08,0.16,0.25,0A3.21,3.21,0,0,0,126.69,324Zm7.51-214.39,1.88-.9c0.42-.2.79-0.39,1.13-0.59a2,2,0,0,0,1.13.54,2,2,0,0,1,1.13.54V107a3.81,3.81,0,0,0-3.76.29,9.16,9.16,0,0,1-.5.91C135,108.43,134.71,108.92,134.2,109.62Zm3.76,212a0.94,0.94,0,0,1-.25-0.73q-0.75-.44-1.25.85V322a75.47,75.47,0,0,1,.5.46l0.25,0a0.94,0.94,0,0,0,.5-0.42A0.78,0.78,0,0,1,138,321.66Zm11.27-216.5a6.55,6.55,0,0,0-.75,2.07q0,1.26,1,.67C149.81,107.37,149.73,106.46,149.23,105.16Zm1,212.49c0.83,0.27,1.33.26,1.5,0a9.28,9.28,0,0,0,.5-0.92,0.48,0.48,0,0,0-.12-0.36A0.46,0.46,0,0,1,152,316l-0.5,0A4.29,4.29,0,0,1,150.23,317.66Zm10-4.63q1.25,3.4,1.5,4.12a2.1,2.1,0,0,0,1,1.16L163,318q-0.25-1-.5-1.83c-0.17-.57-0.34-1.18-0.5-1.83,0-.5-0.09-0.74-0.25-0.73a0.8,0.8,0,0,0-.63-0.19A1.24,1.24,0,0,1,160.24,313Zm5.51-211.33a8.77,8.77,0,0,0-.75,1.82,0.91,0.91,0,0,0,.5,1c0.33,0,.5-0.13.5-0.3a0.8,0.8,0,0,0,.25-0.52,1.69,1.69,0,0,0-.12-0.74A6.85,6.85,0,0,1,165.75,101.7Zm2.75,210.07,0.5-1a0.78,0.78,0,0,0-.25-1,3,3,0,0,0-.88.21,2.87,2.87,0,0,1-.88.21,5.73,5.73,0,0,1,.75.81,1.61,1.61,0,0,0,.75.56,2.6,2.6,0,0,0,.13.86,2.73,2.73,0,0,1,.12.86,0.65,0.65,0,0,0,.5.2c0.33-.36.71-0.73,1.13-1.11A1.72,1.72,0,0,0,171,311a1.21,1.21,0,0,0-1.38,0C169.22,311.32,168.84,311.57,168.51,311.77Zm1.25-198.92a2.05,2.05,0,0,0,1.5,1.61c0,0.17,0,.25.12,0.24s0.13-.09.13-0.26a0.49,0.49,0,0,0,.5-0.55Q171.51,111.93,169.76,112.84Zm4,202.68q-0.75,1.33-.5,1.55,1.25-.12,1.25-0.87c0-.33-0.34-0.47-1-0.4a1.9,1.9,0,0,1-.25-0.6,2.1,2.1,0,0,0-.25-0.6l-0.5-.45-0.25,0a0.49,0.49,0,0,0-.5.55C171.93,315.7,172.6,316,173.77,315.52ZM177,113.89q0-.25,0-0.5a1.48,1.48,0,0,0-2.25-1l-0.25.27a1.21,1.21,0,0,0,.25,1.6,1.28,1.28,0,0,0,1.5.48Zm-0.75,193.37-0.75-.68-0.5,0c0,0.17,0,.25-0.12.26s-0.13.1-.13,0.26v0.25a1.29,1.29,0,0,0,1,.4Zm3,25a3.35,3.35,0,0,0-1-.65,0.74,0.74,0,0,0-.75.82l0.75,0.68A2.74,2.74,0,0,0,179.27,332.26Zm-0.75-14.2c0.33-.36.41-0.62,0.25-0.78a2.35,2.35,0,0,1-.5-0.7,0.2,0.2,0,0,0-.25-0.23c-0.17,0-.25.19-0.25,0.53A1,1,0,0,0,178.52,318.06Zm0.75-149.55c-0.84.08-1.09,0.44-.75,1.07a0.4,0.4,0,0,0,.5.45c0,0.17.08,0.2,0.25,0.1a0.45,0.45,0,0,0,.25-0.4,0.71,0.71,0,0,0,0-1.25ZM179,229.12a1.4,1.4,0,0,0,.5-1.3c0-.16,0-0.25-0.12-0.24s-0.13-.07-0.13-0.24a0.82,0.82,0,0,0-.5.3,3.73,3.73,0,0,1-.25,1.53Zm0.25,28,0.75-.82q0-.25,0-0.5l-0.5,0Q178.52,256.47,179.27,257.14ZM180,196.47l-0.5-.45a0.49,0.49,0,0,0-.5.55c0,0.84.25,1,.75,0.43C179.94,197,180,196.81,180,196.47ZM179.52,157l1.63-.16c0.41,0,.63-0.39.63-1.06A4.25,4.25,0,0,0,179.52,157Zm0.75,79.55a1.12,1.12,0,0,1,.75-0.33,0.56,0.56,0,0,1,.13-0.39,0.56,0.56,0,0,0,.12-0.39,0.46,0.46,0,0,1-.37-0.09,0.49,0.49,0,0,0-.37-0.09c-0.34,0-.5.14-0.5,0.3a0.49,0.49,0,0,0-.5.55C179.52,235.92,179.77,236.06,180.28,236.51Zm-0.75,73.19a5.29,5.29,0,0,1,.75,2.18l0.5,1c0.5,0.29.92,0,1.25-.88a1.82,1.82,0,0,0,.37-0.66,7.5,7.5,0,0,1,.38-0.91A23.38,23.38,0,0,1,179.52,309.7Zm1-195.9a2.58,2.58,0,0,0,0,2.25c0.33,0.64.83,0.67,1.5,0.1a10.31,10.31,0,0,0-.25-2.48,0.2,0.2,0,0,0-.25-0.23A1.58,1.58,0,0,0,180.53,113.8Zm2.75,104.63a0.91,0.91,0,0,1-.63-0.06,0.7,0.7,0,0,0-.63.19q-1.5.66-1,1.85a0.62,0.62,0,0,0,.5.45,0.67,0.67,0,0,1,.5.2,0.56,0.56,0,0,0,.37-0.16,0.57,0.57,0,0,1,.38-0.16A3.16,3.16,0,0,0,183.28,218.43ZM185,254.31a11.06,11.06,0,0,0-1.38,1.77,2.13,2.13,0,0,0,.12,1.87,2.26,2.26,0,0,0,1.13-1.12A14.8,14.8,0,0,0,185,254.31Zm2-11.47-0.5-1a0.47,0.47,0,0,0-.63-0.31q-0.38.17-.13,0.64a1.28,1.28,0,0,0,.5,1l0.25,0A0.81,0.81,0,0,1,187,242.84Zm0.75,9.94-0.5-1a1.6,1.6,0,0,0-1,.35,0.81,0.81,0,0,0,0,.88,0.75,0.75,0,0,0,.75.3A1.61,1.61,0,0,0,187.79,252.77Zm0.5-8.06-0.75.83c-0.17,0-.09.18,0.25,0.48l0.25,0,0.5-1.05ZM192,298.4c0.33,0,.5-0.13.5-0.3A1.62,1.62,0,0,0,193,297a0.4,0.4,0,0,0-.5-0.45q-0.75-.42-1.25.63-0.75.08,0,.75a0.59,0.59,0,0,0,.38.21A0.63,0.63,0,0,1,192,298.4Zm47.82-92.19a2,2,0,0,1-1.38.55,1,1,0,0,0-.88,1,1.18,1.18,0,0,0,.75.41Q239.61,208,239.87,206.21Zm7.26-11.2c-0.67.92-1,1.5-.88,1.74a2.08,2.08,0,0,0,1.38.7A1.79,1.79,0,0,0,247.13,195Zm2,1,0.75-.1a5,5,0,0,1,.5-1.32,0.47,0.47,0,0,0-.12-0.36,0.44,0.44,0,0,1-.13-0.36,0.84,0.84,0,0,1-.37.3,0.83,0.83,0,0,0-.37.3A3.78,3.78,0,0,1,249.13,196Zm11-6.47a1.55,1.55,0,0,0,1.75,1.26,1.81,1.81,0,0,0-.25-1.34A4.86,4.86,0,0,0,260.15,189.54Zm5.51-12.26a4.83,4.83,0,0,1-1.38.44,4.94,4.94,0,0,0-1.38.44,6.07,6.07,0,0,0,1.5.3A4.38,4.38,0,0,0,265.66,177.28Zm-2.75,8.64a1.16,1.16,0,0,0,1.5.29,1.09,1.09,0,0,1,1.5.55,9.12,9.12,0,0,0,.75-1.48,2.71,2.71,0,0,0,0-1.63,2.57,2.57,0,0,0-3,.41A16.54,16.54,0,0,1,262.9,185.92Zm11.77-2.13a6,6,0,0,0-1.5-1,1.27,1.27,0,0,0-1.5.21,1.72,1.72,0,0,0,.75,1.15q1,0.86,2.25-.57a3.77,3.77,0,0,0,2.25-.07v-1.25A2.55,2.55,0,0,0,274.67,183.79Zm0.5-7.83,1.5,0.54a0.52,0.52,0,0,0,.5-0.57c0.16,0,.21-0.11.13-0.27a0.35,0.35,0,0,0-.38-0.2A1.42,1.42,0,0,0,275.17,176Zm3.26,4.55,0.5-.57c0.17,0,.21-0.11.13-0.27a0.35,0.35,0,0,0-.37-0.2c-0.5-.43-0.75-0.23-0.75.61Zm1.75-22.78v1.75a0.44,0.44,0,0,0,.12.36,0.45,0.45,0,0,1,.13.36,1.44,1.44,0,0,0,1.5-.72,2.69,2.69,0,0,0-.75-2.15A1.63,1.63,0,0,1,280.18,157.72Zm0,56.34,1.5,0.54a0.59,0.59,0,0,0,.37-0.18,0.6,0.6,0,0,1,.38-0.18V214l-0.75-.64-0.75.11A1.71,1.71,0,0,0,280.18,214.06Zm1.5,7.3a0.26,0.26,0,0,1,.25-0.28l-1-.36-0.5.07v0.5a0.19,0.19,0,0,0,.25.21Zm-0.75-82a1.35,1.35,0,0,0,1.75,0,0.78,0.78,0,0,0,.75-0.86,1.93,1.93,0,0,0-.75-0.89A7.09,7.09,0,0,0,280.93,139.34Zm0.5,45.25a16.23,16.23,0,0,0-.5,2.07,0.58,0.58,0,0,0,.5.43,2.43,2.43,0,0,0,1.75-2.25,1.89,1.89,0,0,0-.88-0.13A1.82,1.82,0,0,1,281.43,184.59Zm0.25-30.83v1.5a0.63,0.63,0,0,1,.25.47c0.17,0.14.33,0.08,0.5-.2a0.45,0.45,0,0,0,0-.63A1.72,1.72,0,0,0,281.68,153.75Zm1.75,15a2.44,2.44,0,0,0,.75-1.36q0-.25,0-0.5t0-.25a3.67,3.67,0,0,0-2.5,1.61,5.65,5.65,0,0,0,.88.25A6.74,6.74,0,0,1,283.43,168.78Zm-0.5,30.37a2.49,2.49,0,0,0,.25-1,2.45,2.45,0,0,1,.25-1,3,3,0,0,1,.75-1,0.76,0.76,0,0,0,0-1.13,2.1,2.1,0,0,0-2,1.29,2.28,2.28,0,0,1,.12,1.36A1.63,1.63,0,0,0,282.93,199.14Zm0.75,109.06a1.23,1.23,0,0,0-.5-0.93,0.19,0.19,0,0,0-.25-0.21,0.26,0.26,0,0,0-.25.29q-1,1.15.25,1.47c0,0.17,0,.25.12,0.23s0.12-.1.12-0.27A0.52,0.52,0,0,0,283.68,308.2Z" transform="translate(-7.95 -4.69)"/><path class="cls-1" d="M337,139.3a21.4,21.4,0,0,1,1.75-1.29,1.17,1.17,0,0,0,.25-0.79V136q-1.5-6.26,4.26-11.71a4.19,4.19,0,0,1,1.13-.93,9.4,9.4,0,0,0,1.38-1,13.24,13.24,0,0,0,2.75-2.21,2.81,2.81,0,0,1,2.25-1.12,2.18,2.18,0,0,0,.5.67,2.43,2.43,0,0,1,.5.67l0.5,0.17,2.13-.35a11.32,11.32,0,0,1,2.13-.11L357,120a1.81,1.81,0,0,0,.88.1,0.6,0.6,0,0,1,.63.4,3.18,3.18,0,0,0,2,.67,1.85,1.85,0,0,1,1.75,1.21,4.48,4.48,0,0,0,1,1.33,1.2,1.2,0,0,1,.5.92,1.94,1.94,0,0,0,.25,1q0.24,2.46.5,4.8a47.12,47.12,0,0,0,.75,4.75,8.35,8.35,0,0,0,.13,1.48,7.71,7.71,0,0,1,.12,1.23c0,1,0,2,0,2.88a16.53,16.53,0,0,0,.25,2.84,23.38,23.38,0,0,0,.63,2.4,4.81,4.81,0,0,0,1.63,2.23,5.2,5.2,0,0,1,2,4.16,47.36,47.36,0,0,0,.25,5.09,23.9,23.9,0,0,0,1,4.71q0.75,2.63,1.25,5.29t1,5.34a16.05,16.05,0,0,1,.25,3.46,21.67,21.67,0,0,0,.13,5.24q0.37,2.44.88,5.11a31.2,31.2,0,0,1,.75,3.88,29.82,29.82,0,0,0,.75,3.88q0.5,2.42,1,4.84t1,5.08q0.5,2.67,1.13,5.19t1.13,5.19q0.5,2.67,1.13,5.19t1.13,5.19q0.5,1.92,1,4.08l1,4.33q0.5,2.42,1,4.71t1,4.71a58.26,58.26,0,0,1,1.75,10.46q0.25,1.46.5,2.92a16.78,16.78,0,0,0,.75,2.87c0.16,0.47.33,0.9,0.5,1.29s0.33,0.82.5,1.29a36.09,36.09,0,0,1,1.25,3.66,9.76,9.76,0,0,1,.25,3.84,8.1,8.1,0,0,0,1.75,5.7,2.4,2.4,0,0,1,.88,1.6,15.63,15.63,0,0,1,.13,2,15.25,15.25,0,0,1-1,7.69,17.38,17.38,0,0,1-5.76,8.28,5.74,5.74,0,0,1-2.5,1.19,30.43,30.43,0,0,1-5.76,0,10.13,10.13,0,0,1-5-1.89,10.51,10.51,0,0,1-5-6.9,0.44,0.44,0,0,0-.13-0.35,0.43,0.43,0,0,1-.12-0.35v-6q-0.25-2.71-.5-5.17a29.32,29.32,0,0,0-1-5.09,12.78,12.78,0,0,0-5.51-8.08,13.26,13.26,0,0,0-7.51-1.49,42.23,42.23,0,0,0-6.26,1,16.67,16.67,0,0,0-7.76,4.53,12.12,12.12,0,0,0-.88,1.14,11.72,11.72,0,0,1-.88,1.14,6.18,6.18,0,0,0-1.75,5,5.37,5.37,0,0,1-1.5,3.5,5.82,5.82,0,0,0-1.25,5.46l0.75,2.88a12.28,12.28,0,0,1-1.5,6.75l-0.75,2.37a12.06,12.06,0,0,1-5.76,7.93,17.22,17.22,0,0,1-11,3.23,4.87,4.87,0,0,1-2.5-.87,6.81,6.81,0,0,1-.88-0.87,8,8,0,0,0-.88-0.87,3.49,3.49,0,0,1-1.25-2.81,78.94,78.94,0,0,1,0-8.89,53.1,53.1,0,0,1,1.25-8.83,105.7,105.7,0,0,0,2.25-12.87,30.08,30.08,0,0,0,.75-3.5q0.25-1.66.75-3.75a4.93,4.93,0,0,0,.5-2.08,6.72,6.72,0,0,1,.5-2.33q0.5-2.08.88-4c0.25-1.29.54-2.63,0.88-4a35,35,0,0,0,1-8.67q0.25-2.79.37-5.82t0.38-6.07a26.13,26.13,0,0,1,2-8.33,45.39,45.39,0,0,0,1.75-6q0.75-2.62,1.38-5.23t1.13-5.19a14.3,14.3,0,0,0,.25-2.67q0-1.37,0-2.63a15.26,15.26,0,0,1,.25-4.8l1-4.67,3.76-17.12c0.33-1.39.58-2.35,0.75-2.87a7.17,7.17,0,0,1,.12-1.4,6.25,6.25,0,0,0,.13-1.15,13.83,13.83,0,0,1,1.75-7,2.77,2.77,0,0,0,.5-1.83v-6c0-1.5,0-3,0-4.63a22.27,22.27,0,0,1,.5-4.71c0.16-.53.33-1.09,0.5-1.71S336.85,139.83,337,139.3ZM329.5,258.44a1,1,0,0,0-.5.83c0,0.34-.17.36-0.5,0.08-0.17,0-.25-0.21-0.25-0.71a6.78,6.78,0,0,1-1.25,1.2l1.5,0.51a1.81,1.81,0,0,0,.88.11,1.17,1.17,0,0,1,.88.36v-1.75Zm5.26-36.15a1,1,0,0,0,.75-1.12c-0.17,0-.25-0.13-0.25-0.46a0.19,0.19,0,0,0-.25-0.21,2.26,2.26,0,0,0,.25-0.79,2.21,2.21,0,0,1,.25-0.79l-1.5.24a3.67,3.67,0,0,0,.13,1,4,4,0,0,1,.12,1,0.59,0.59,0,0,1-.12.39,0.58,0.58,0,0,0-.13.4,1.18,1.18,0,0,1,.75.38,7.54,7.54,0,0,0-2.25.11,11.6,11.6,0,0,1,.88,1.36,3.75,3.75,0,0,0,.88,1.11,7.73,7.73,0,0,0,2.75-.44,5.17,5.17,0,0,1-2.25-.39v-1.75Zm0,26.79a1.75,1.75,0,0,1-.75.62c0.33,0.78.83,0.87,1.5,0.26v-1Zm3.5-67.17a8.29,8.29,0,0,0-.25,1.92,11.88,11.88,0,0,1-.25,2.17,0.93,0.93,0,0,1,.75.13,12,12,0,0,0,.5-1.83c0-.17,0-0.24-0.13-0.23s-0.12-.06-0.12-0.23l0.75-.87a3.09,3.09,0,0,0-.75-0.51A1,1,0,0,1,338.27,181.92Zm4.26,66.16a1.17,1.17,0,0,0-1.13-.82A2.24,2.24,0,0,1,340,247a3.23,3.23,0,0,1-.12,2,1.84,1.84,0,0,0,.12,1.73,0.85,0.85,0,0,0,1.25-.71,4.4,4.4,0,0,1-.75-1.13,2.58,2.58,0,0,1,1-.41A2.54,2.54,0,0,0,342.52,248.08Zm0.5-78.2-0.25-.21,0.25,0a1,1,0,0,1-.88-0.23c-0.25-.21-0.54-0.12-0.88.27a2.46,2.46,0,0,0-.25,1,1.73,1.73,0,0,1-.5,1.08,2.16,2.16,0,0,1,1.25.67,0.82,0.82,0,0,0,1.25-.08,1.94,1.94,0,0,1-.25-1,2,2,0,0,0-.25-1Zm3.25,82.84a1.29,1.29,0,0,0-.5.21,1.94,1.94,0,0,1-.75.25,3.32,3.32,0,0,1-1.5,0c-0.17.53-.34,1-0.5,1.46a5.67,5.67,0,0,0-.25,1.92l1-1.67c1-.67,1.66-0.44,2,0.67a3.81,3.81,0,0,1,.75-1.37A1.06,1.06,0,0,0,346.28,252.72ZM343,167.12a1.32,1.32,0,0,0,1,.09l0.25,0v1.75a2.37,2.37,0,0,1,.88-0.39,2.32,2.32,0,0,0,.88-0.39,4.38,4.38,0,0,1,.5-1.58l-1,.67a5.09,5.09,0,0,0-.88-0.61A2.33,2.33,0,0,0,343,167.12Zm6.76,16.66v13.4a7.69,7.69,0,0,1-.5,2.71,28.43,28.43,0,0,0-.75,3.63,29.16,29.16,0,0,1-.75,3.63q-1,3.92-1.75,7.8l-1.5,7.76c-0.17.7-.29,1.34-0.37,1.94s-0.21,1.33-.37,2.19a11.31,11.31,0,0,0,.5,4.68,4.19,4.19,0,0,0,1.75,2.22,3.61,3.61,0,0,1,1.5.88,7.68,7.68,0,0,1,1,1.46q2.75,2.8,6,0a14.87,14.87,0,0,0,3.26-2.3,12,12,0,0,0,3.76-5.64,2.89,2.89,0,0,0-.25-2.71,15.32,15.32,0,0,1-1.75-7.47,4.9,4.9,0,0,0-.25-2,7.13,7.13,0,0,1-.88-2.86c-0.09-1-.21-2-0.37-2.94q-0.25-1.71-.38-3.44c-0.09-1.15-.12-2.4-0.12-3.73a4,4,0,0,0-.25-1.71L355,194.18q-0.5-2.42-1.13-4.94a21.83,21.83,0,0,1-.63-5.28,0.45,0.45,0,0,0-.12-0.35,0.43,0.43,0,0,1-.13-0.36Zm-3-36.56a0.89,0.89,0,0,0,0,1.25,1.64,1.64,0,0,1-.88.77c-0.59.35-1,.63-1.38,0.85v1.75a1.44,1.44,0,0,0,.5.29,1.77,1.77,0,0,1,.5.29,0.38,0.38,0,0,1,.12.48c-0.09.18,0,.24,0.37,0.19a1.31,1.31,0,0,0-.25-1.71v-0.5a16.8,16.8,0,0,1,1.75-1,2.46,2.46,0,0,0-.38-0.56,2.13,2.13,0,0,1-.37-0.57c0.33,0.62.5,0.59,0.5-.08A0.94,0.94,0,0,0,346.78,147.22Zm4-6.17-1.75.29a1.75,1.75,0,0,0-.75.63,6.6,6.6,0,0,1,1.63-.14c0.25,0,.79.16,1.63,0.36a3.26,3.26,0,0,0,.37-1.56,3,3,0,0,0-.63-0.65,0.86,0.86,0,0,0-.25.54A0.87,0.87,0,0,1,350.79,141.05Zm1,111.25,0.75-1.63a1.2,1.2,0,0,0-1-.83,1,1,0,0,1-.75-1.13,7.36,7.36,0,0,1-1.5,1.25,1.88,1.88,0,0,1,1.5,1,5.23,5.23,0,0,1,.25,1.71A2.26,2.26,0,0,0,351.79,252.31Zm1.5-85.88a2.64,2.64,0,0,1-.63-0.65,1.69,1.69,0,0,0-.38-0.44c-1.17.36-1.75,0.79-1.75,1.29a1.89,1.89,0,0,0,1,.58A11.85,11.85,0,0,0,353.29,166.43ZM353,147.69a2.82,2.82,0,0,0-1.5,1.75,20.77,20.77,0,0,0-.75,2.13,17.34,17.34,0,0,1,2.5-.92,8.91,8.91,0,0,0-.12-1.48A8.37,8.37,0,0,1,353,147.69Zm-1.25,14.23a4.51,4.51,0,0,0,1.5,0,2.68,2.68,0,0,1,1.25,0q0,0.75,0,1.5c0,0.17.16,0.22,0.5,0.17a0.58,0.58,0,0,1,.13-0.4,0.59,0.59,0,0,0,.12-0.4,1.22,1.22,0,0,1,.75-0.38q-0.5-1.92-2-1.17l-0.75.13a0.6,0.6,0,0,1-.5-0.17,2,2,0,0,0-.25-1l-0.37.81Zm3.5-4.59a1.45,1.45,0,0,1-.37-0.44,3,3,0,0,0-.63-0.65,2.22,2.22,0,0,0-.25.79,2.29,2.29,0,0,1-.25.79,0.43,0.43,0,0,0,.12.35,0.45,0.45,0,0,1,.13.35l1.25-.21Q355.29,157.83,355.29,157.33Zm3.5,8.17a1.86,1.86,0,0,1,.13-0.77,0.85,0.85,0,0,0-.13-0.73c-0.67.45-1.29,0.89-1.88,1.32s-1.21.87-1.88,1.31a4.86,4.86,0,0,1,.75,1.13A25.94,25.94,0,0,1,358.8,165.51Zm1.25,87.42q1.25-1.71.5-2.59a6.25,6.25,0,0,0-1.75.55,1.59,1.59,0,0,1-1.5,0v-1.25a4.53,4.53,0,0,1-1.5.75,8.67,8.67,0,0,0,1.25,2,2.59,2.59,0,0,1,1-.42,2.55,2.55,0,0,0,1-.42Zm-1.5-96.39a0.88,0.88,0,0,1-.25.54l0.5-.08,1.25-.21v-0.25A3.38,3.38,0,0,0,358.55,156.54Zm4.26,90.67a5.27,5.27,0,0,0-3.5.34,12.87,12.87,0,0,0,1.25,1.54c0,0.17.16,0.22,0.5,0.17l0.75-1.63a0.59,0.59,0,0,0,.37-0.19,1.15,1.15,0,0,1,.63-0.23v0.5a1.71,1.71,0,0,0,.75.12,1.8,1.8,0,0,1,.75.12q1,2.34,2.5.58a6,6,0,0,0-1.88-1.81A9.83,9.83,0,0,1,362.8,245a1.33,1.33,0,0,0-1-.08v1.25a4.08,4.08,0,0,0,1,.21,3.71,3.71,0,0,1,1.25.41A4.62,4.62,0,0,1,362.8,247.21Zm-1.25-70.9a3.48,3.48,0,0,0-1,2.17,3,3,0,0,1,2.13-.11,6.2,6.2,0,0,0,1.88.43Q364.3,177.1,361.55,176.31Zm7.26,66.62a0.18,0.18,0,0,0,.25.21,1.73,1.73,0,0,0,.5-0.84,4.65,4.65,0,0,0,.63-1.74,7.12,7.12,0,0,1,.63-2,9.81,9.81,0,0,1-3.26,2.56,1.15,1.15,0,0,1,.5.67,7.26,7.26,0,0,0,1.25-1L368.94,242A2.92,2.92,0,0,0,368.82,242.93Z" transform="translate(-7.95 -4.69)"/><path class="cls-1" d="M444.18,277.44a12.46,12.46,0,0,0-.87,1.17,8.62,8.62,0,0,0-.62,1.12,11.81,11.81,0,0,1-4.21,4.54,21.36,21.36,0,0,1-5.2,2.22q-4.45,1.58-6.93-2a10.75,10.75,0,0,1-2.23-6.85q0-7.89,0-15.77a50.58,50.58,0,0,0-.37-6.07,17.37,17.37,0,0,0-1.62-5.59,5.52,5.52,0,0,1,0-4,15,15,0,0,0,.5-3.1q0.25-2.3.5-4.6a34.42,34.42,0,0,1,.75-4.39,11.31,11.31,0,0,0,.13-4.4,12.88,12.88,0,0,0-1.38-3.88l-0.75-1.36v-5.26q0-2.75-.12-5.61a42.14,42.14,0,0,1,.12-5.66,18.71,18.71,0,0,0-.37-3.81,6.07,6.07,0,0,0-1.63-3.08q-0.75-2.11-1.5-4.11t-1.5-3.86q-1.5-4.73-2.63-9.54T411.88,174a42.28,42.28,0,0,0-3.25-10.68q-2-5.39-3.63-10.74t-2.88-10.88c-0.17-.8-0.29-1.57-0.38-2.31s-0.21-1.5-.37-2.31q-1-1.32-2-2.77c-0.67-1-1.34-2-2-3a16,16,0,0,0-.12-2,14.93,14.93,0,0,1-.13-2c0-1.5,0-3.05.13-4.66a16.52,16.52,0,0,0-.38-4.56,4.34,4.34,0,0,1,1.5-4.27c0.5-.59,1-1.14,1.5-1.65s1-1.06,1.5-1.65a10.11,10.11,0,0,1,3.63-.9l3.38-.11a3.82,3.82,0,0,1,2,.51,13,13,0,0,0,1.5.85,7.75,7.75,0,0,0,1.5,1,12.65,12.65,0,0,0,1.75.68q3.51,1.12,4.76,5.39,1.25,5.28,2.74,10.26a94.41,94.41,0,0,1,2.48,10.56l0.74,5.12a29.82,29.82,0,0,0,1.49,9.49A28.79,28.79,0,0,1,429.2,159a47.28,47.28,0,0,1,.87,6.35,14.28,14.28,0,0,1,1.73.68,2,2,0,0,1,.25,1,1.93,1.93,0,0,0,.25,1c0.17,1.14.74,1.62,1.73,1.43q1.24-.23,1.73-2.08a0.6,0.6,0,0,1,.12-0.4,0.61,0.61,0,0,0,.12-0.4,18.87,18.87,0,0,1,2-6.63,14.42,14.42,0,0,0,1.36-3.88c0.25-1.3.45-2.63,0.62-4a60.28,60.28,0,0,1,4.46-19.87,43.14,43.14,0,0,0,2.24-7.68q0.75-3.9,1.25-7.75a21.15,21.15,0,0,1,2.25-7.19,15.81,15.81,0,0,1,5.51-5.8,16.58,16.58,0,0,1,2.63-1.25l2.88-1.05a22.84,22.84,0,0,0,2.38-.58A10.79,10.79,0,0,0,466,99.78l1.25-.24q2.25-.43,3,1.17a16.89,16.89,0,0,1,1.63,5.19,13.46,13.46,0,0,1-.63,5.88q-1.75,6.6-3.51,12.95t-3.76,13q-0.5,2.35-1,4.82t-1,5.07q-0.5,2.6-1,5.07a20,20,0,0,1-1.75,5,23.67,23.67,0,0,0-2.5,8.74,26.68,26.68,0,0,1-1.75,6.59,32.63,32.63,0,0,0-2,4.89l-1.5,4.79q-1.26,4.75-2.63,9.64a79.23,79.23,0,0,0-2.13,10,55,55,0,0,0-1.25,11.25q0,1.5,0,3a17.16,17.16,0,0,0,.25,3,19.56,19.56,0,0,1,.5,4.41,22.16,22.16,0,0,1-.5,4.6,53.71,53.71,0,0,0-1.25,8.62q-0.25,4.18-.25,8.44,0.24,7,.12,13.87t-0.12,13.92Q444.18,275.43,444.18,277.44ZM429.66,193a2.21,2.21,0,0,0,2.25-.92,12.92,12.92,0,0,0,.75-2.14,0.56,0.56,0,0,0-.5-0.41,1.69,1.69,0,0,0-.5,1,1.71,1.71,0,0,1-.5,1,4.62,4.62,0,0,1-.75.76A4.82,4.82,0,0,0,429.66,193Zm5.26,3.28a1.35,1.35,0,0,1-1.75.08,1.68,1.68,0,0,0-2,.12,1.78,1.78,0,0,1,.63.89,1.07,1.07,0,0,0,1.13.54,3.28,3.28,0,0,1,.88-0.79,3.17,3.17,0,0,0,.88-0.79,2.68,2.68,0,0,1,1-.44,2.6,2.6,0,0,0,1-.44q0.75-.39,0-1.5A19.45,19.45,0,0,1,434.92,196.29Zm4.76-21.92a0.91,0.91,0,0,1-.5.34,0.91,0.91,0,0,0-.5.34,0.38,0.38,0,0,0,.13.6,1,1,0,0,0,.88.21,0.82,0.82,0,0,0,.75-0.89Zm5.51-5a1.07,1.07,0,0,0-1-.56,0.33,0.33,0,0,0-.5.09,1.19,1.19,0,0,0-.25.8,0.55,0.55,0,0,0,.75.61A5.13,5.13,0,0,0,445.18,169.33Z" transform="translate(-7.95 -4.69)"/><path class="cls-1" d="M493.25,186.88c-0.17-.8-0.34-1.6-0.5-2.4a12.46,12.46,0,0,0-.75-2.36,14.73,14.73,0,0,1-.5-3.78q0-1.88,0-3.88c0-1.66,0-3.26.13-4.78a30.71,30.71,0,0,0-.13-4.73,27.66,27.66,0,0,1,.25-3.8q0.25-1.8.5-3.85a57,57,0,0,0,0-7.51q-0.25-2.7-.37-5.56c-0.09-1.9-.13-3.77-0.13-5.61q-0.25-4.46-.12-9t0.12-9.29a29.17,29.17,0,0,1-.25-3.71q0-1.75,0-3.76a12.52,12.52,0,0,1,.5-4.1,7.32,7.32,0,0,0,1.25-3,20.94,20.94,0,0,0,.25-3.3c0-.5,0-1,0-1.63a9.83,9.83,0,0,1,2.63-6.4,10.28,10.28,0,0,1,4.38-2.61l1-.2q22.91-4.51,45.82-9.14a11.59,11.59,0,0,1,6,0q5,0.74,5.51,6.15a15,15,0,0,1-.5,7.61,11.46,11.46,0,0,1-8,8.13,39.82,39.82,0,0,1-3.88,1.53l-3.88,1.28A33.15,33.15,0,0,1,531.06,109a1.3,1.3,0,0,1-1-.05q-4-.45-7.76,3.55a25.65,25.65,0,0,1-4.25,4.1,8.17,8.17,0,0,0-3.51,6.71v1.75q0,7.27,0,14.4t-0.25,14.45a9.86,9.86,0,0,0,2.88,7.19,11.18,11.18,0,0,0,6.64,3.44,3.29,3.29,0,0,0,1.5,0l4-.8a18.56,18.56,0,0,0,4-1.3c0.83-.33,1.59-0.65,2.25-1a7,7,0,0,0,1.75-1.1,4.91,4.91,0,0,1,2.25-1,9.85,9.85,0,0,1,5.26,1.45,14,14,0,0,0,2.5.75,11.77,11.77,0,0,0,2.75.2l0.5,0.4a13.37,13.37,0,0,0,1.38,3.1,8.7,8.7,0,0,1,1.13,3.4,17.25,17.25,0,0,0,.12,2.23,7.46,7.46,0,0,1-.12,2.28,9.47,9.47,0,0,1-1,3,16.27,16.27,0,0,1-2.25,3.71,12.44,12.44,0,0,1-1.75,2.86,7.65,7.65,0,0,1-4.51,2.66l-17.27,3.46a18.2,18.2,0,0,0-6.76,3.1,8,8,0,0,0-3.51,5.2,38,38,0,0,0-.75,4,40.48,40.48,0,0,1-.75,4,9.29,9.29,0,0,0-.12,2.65q0.12,1.35.12,2.6v19a26.08,26.08,0,0,0,.75,6.61q1.25,4.51,4.88,5.91a12.59,12.59,0,0,0,7.89.3,15.65,15.65,0,0,0,3-1.1,10.13,10.13,0,0,1,3.38-1.43,19.5,19.5,0,0,1,3.13-.38,1.06,1.06,0,0,1,.5,0,1.59,1.59,0,0,0,.75,0,16.08,16.08,0,0,1,4.38-.76q2.12-.05,4.13,0a7.65,7.65,0,0,1,2,.1,7.21,7.21,0,0,0,3.5,0q3-.1,4,2.19,0.5,1.91,1,3.56t1,3.55a11.48,11.48,0,0,1,0,4.76,9.46,9.46,0,0,1-2.5,5.39,10.61,10.61,0,0,1-5,3.39l-5.88,1.69q-2.88.83-5.63,1.88-2.51.76-5,1.26t-5.26,1.3l-4.13.83a37,37,0,0,0-4.13,1.07q-4.51,1.15-9,1.92t-9.26,2a16,16,0,0,1-6.76-.42,7.67,7.67,0,0,1-3.76-4,11.34,11.34,0,0,1-.75-2.48,7,7,0,0,1,0-2.63V236.25a7.68,7.68,0,0,0-.12-1.23,8.26,8.26,0,0,1-.13-1.48,4.7,4.7,0,0,1,.25-1.8,12.33,12.33,0,0,0,.25-6.56,17.85,17.85,0,0,1-.25-3.08q0-1.63,0-3.13V201.44a15.52,15.52,0,0,1,.25-3.31,14.13,14.13,0,0,0,.25-3.05,14.32,14.32,0,0,0,.25-2.68,14,14,0,0,1,.25-2.68,7.28,7.28,0,0,1,.12-1.4A13.14,13.14,0,0,1,493.25,186.88ZM502,239.74a0.63,0.63,0,0,0,.38-0.2,0.62,0.62,0,0,1,.37-0.2,1.9,1.9,0,0,1-.25-1,2,2,0,0,0-.25-1,1.21,1.21,0,0,0-1-.3,3.65,3.65,0,0,0-1.63,1.7,12.87,12.87,0,0,1-.88,1.8,0.6,0.6,0,0,1,.25.45,0.57,0.57,0,0,0,.25.45,4.83,4.83,0,0,0,.63-1.63,2.78,2.78,0,0,1,.63-1.37A1.38,1.38,0,0,1,502,239.74ZM504.27,185a2.52,2.52,0,0,0-1.75-.65l-1.5,1.8a3.94,3.94,0,0,0,1,.18,4.64,4.64,0,0,1,1,.18C503.68,186.5,504.1,186,504.27,185Zm-0.75,18.18a6.08,6.08,0,0,1,.25,2,5.46,5.46,0,0,1,1.25-1.75,2.52,2.52,0,0,1-.63-0.63,1.65,1.65,0,0,0-.38-0.43,1.43,1.43,0,0,1-1-.18,1.12,1.12,0,0,0-1.25.37,15.38,15.38,0,0,0,1,2.31l0.37-.83Zm1.5-40.61a17.44,17.44,0,0,0-3,.84q1,0.05,2.5.26a3.77,3.77,0,0,0-.63.5,3.74,3.74,0,0,1-.63.5,17.17,17.17,0,0,0,1.25,1.76A22.52,22.52,0,0,1,505,162.53Zm2.25-46-0.5-.4a4.42,4.42,0,0,1-1.13,1,1.47,1.47,0,0,0-.63,1.37l-0.75.9a7.67,7.67,0,0,1-1,1.7,4.68,4.68,0,0,1,.75.73l0.75,1q-0.5-3.15,1.5-3.8l0.75,0.6a0.74,0.74,0,0,0,.63-0.5,8.23,8.23,0,0,1,.37-1q0-.25,0-0.5a2.64,2.64,0,0,1-.88,0,2.7,2.7,0,0,0-.88,0Zm0.5,63.25a5.06,5.06,0,0,0,.75-1.15l-0.5-.9-0.5-.9c0.16-.53.41-0.75,0.75-0.65a1,1,0,0,0,1-.45,20.1,20.1,0,0,0,.37-2.08,1.85,1.85,0,0,0-1.13-1.78c-0.17.7-.34,1.32-0.5,1.85s-0.34,1.15-.5,1.85a2.05,2.05,0,0,0-1.75,1.85,9,9,0,0,1-.5,2.35,2.81,2.81,0,0,1-1.25,1q-0.75.4-.5,1.85a1.8,1.8,0,0,1,.5-0.72,1.79,1.79,0,0,0,.5-0.72,1.54,1.54,0,0,1,1.5-.42,3.09,3.09,0,0,0,1.5.08A1.7,1.7,0,0,0,507.78,179.76Zm-3-38.22v-0.25a1.32,1.32,0,0,0-.5.23,2,2,0,0,1-.75.27,3.83,3.83,0,0,0,.5,1.9,2,2,0,0,0,1.75.41,19.31,19.31,0,0,0-1.5-2.21A0.92,0.92,0,0,0,504.77,141.54Zm1-29.74a7.12,7.12,0,0,1-1.25,1.25,2.07,2.07,0,0,1,1.5,1.71l-0.75.9,0.5,0.4a2.39,2.39,0,0,1,.75-0.4,0.92,0.92,0,0,0,.5-0.35,3.13,3.13,0,0,1,1,.55,7.61,7.61,0,0,0,1-1.7,3.16,3.16,0,0,0-1.5.17,1,1,0,0,1-1.25-.63l0.5-.6c0.33-.23.58-0.24,0.75,0s0.41,0.13.75-.27a1.2,1.2,0,0,0-1.25-.5A1.19,1.19,0,0,1,505.77,111.8Zm0.75,143.32-1-1.3a3,3,0,0,0-.25,2.05,1.56,1.56,0,0,0,1.25,1.25,3.15,3.15,0,0,1-.25,1.3,4.08,4.08,0,0,0,1.5-1l-0.5-.4,0.25-.55Zm2-146.62-0.25-.2a7.75,7.75,0,0,0-.25-2l-0.5,1.6a3.45,3.45,0,0,0-1.5-.2,3.14,3.14,0,0,1-.25,1.3c0.5,0.07,1,.15,1.38.23a2,2,0,0,0,1.38-.27,0.18,0.18,0,0,1,.25.2,0.31,0.31,0,0,1,0,.5c-0.17.2,0,.34,0.5,0.4A1.74,1.74,0,0,1,510,109a1.07,1.07,0,0,1,.63-0.37,1.76,1.76,0,0,0,.88-0.67,2.62,2.62,0,0,1-.88,0,2,2,0,0,0-.63,0,4,4,0,0,0-1-1.06,2.25,2.25,0,0,0-.25.8A2.29,2.29,0,0,1,508.53,108.5Zm-1.5,137a2.37,2.37,0,0,1,.75.35,2.14,2.14,0,0,0,.75.35,3,3,0,0,0,.37-1.7,4.2,4.2,0,0,0-1.13-1.66,0.55,0.55,0,0,1-.5.6,2,2,0,0,0,.37.55,2.37,2.37,0,0,1,.37.55A5.21,5.21,0,0,1,507,245.51Zm3-59.69a3,3,0,0,1,.75.85l0.5,0.9a0.93,0.93,0,0,1,.5-0.35l0.75-.15a3.14,3.14,0,0,1-.25-1.45q-0.5-1.15-.75-1.1a4.22,4.22,0,0,1-.75-1.1l-1,1.2-0.75.15q0,0.5,0,1A2,2,0,0,0,510,185.82Zm4.76-.69A2.42,2.42,0,0,0,516,185q0.25-.17,1.5-1.18a2.55,2.55,0,0,1-.63-0.63,1.07,1.07,0,0,0-.63-0.38,1.77,1.77,0,0,1-1.25-1.25l-0.5-.9a21.14,21.14,0,0,1-1.75,1.35q-0.5,1.36.5,1.65a7.52,7.52,0,0,1,.75-1.4l0.25,0a1,1,0,0,0,.5.53,1.05,1.05,0,0,1,.5.53C515.79,183.85,515.62,184.46,514.79,185.13ZM518,97.6a4.16,4.16,0,0,0-1.25-.75l-1.25.25a0.92,0.92,0,0,1-.5.35,4.29,4.29,0,0,0,1,1.3,2.71,2.71,0,0,1,1-.45A1.85,1.85,0,0,0,518,97.6Zm-2.75,5.55a3.68,3.68,0,0,1,.5,1.15,3.22,3.22,0,0,1,.25,1.45l3-1.35q0.75-1.4,0-2a3.33,3.33,0,0,1-2.5,2,5.35,5.35,0,0,1-.37-0.8A1,1,0,0,0,515.29,103.15Zm3,147.38a20.07,20.07,0,0,1-1.5,2.3,4.23,4.23,0,0,0,.75,1.1,18.21,18.21,0,0,0-1,3.2,0.65,0.65,0,0,1-.63.25c-0.25,0-.46.3-0.63,1a2.3,2.3,0,0,1,1.63-.57,2.71,2.71,0,0,1,1.13.53l0.5-.1a2.28,2.28,0,0,0,.25-0.8,0.89,0.89,0,0,1,.25-0.55,0.58,0.58,0,0,0-.37-0.18,0.54,0.54,0,0,1-.38-0.17,11.72,11.72,0,0,1,.13-1.65,12.46,12.46,0,0,0,.12-1.65l-0.75-.6q1.25-2,.5-3.1a1.17,1.17,0,0,0-1.5.8,0.86,0.86,0,0,1,.25.7A3.25,3.25,0,0,0,518.29,250.53Zm10.77,2.86a3.88,3.88,0,0,1-1-1.05l0.5-.6a8.43,8.43,0,0,1-.75-1.1,10,10,0,0,0-.75-1.1,1.6,1.6,0,0,0-1.25.75,2.23,2.23,0,0,0-.25,1.3,0.92,0.92,0,0,1,.63,0,0.9,0.9,0,0,0,.63,0Q526.81,253.1,529.06,253.4Zm3.26-77a3.05,3.05,0,0,0,.5-1.48,1.18,1.18,0,0,1,.75-1v-2.25l-1.25.25-0.5,1.1q-0.75,2.41-2.75,2.31l-0.5.6a2.1,2.1,0,0,1,1.25.75,4.91,4.91,0,0,1,1.75-.85,0.61,0.61,0,0,1-.12.4,1.1,1.1,0,0,0-.13.65A1.76,1.76,0,0,1,532.32,176.38Zm4.76-78.32a9.62,9.62,0,0,0-1.5,1.55,2.7,2.7,0,0,1,.88,0,1.88,1.88,0,0,0,.63,0,8.94,8.94,0,0,1,2.25-3l0.75,0.6a0.28,0.28,0,0,1,.25-0.3,1.38,1.38,0,0,1-.5-1.15,2.52,2.52,0,0,0-2,.28,13.91,13.91,0,0,1-1.5.93,2,2,0,0,0,.37.55A2.36,2.36,0,0,1,537.07,98.05Z" transform="translate(-7.95 -4.69)"/><path class="cls-1" d="M619.2,248.15q-3.26,3.67-7,1.43l-7.26,1.48a4.29,4.29,0,0,1-1.25-.5,3.94,3.94,0,0,0-4.26-.63,11.16,11.16,0,0,1-1.63.21,12.06,12.06,0,0,0-1.63.21,22.17,22.17,0,0,1-12.27-10.52q-0.5-1.15-1-2c-0.34-.6-0.75-1.26-1.25-2a12.62,12.62,0,0,1-2.25-9.31v-1.25a8.31,8.31,0,0,1-1.75-5.9,4.34,4.34,0,0,0-.25-1.45,3.64,3.64,0,0,1-.25-1.2c-0.17-.8-0.29-1.57-0.37-2.3a5.31,5.31,0,0,1,.37-2.46,2.88,2.88,0,0,1,1.13-.85,5,5,0,0,0,1.38-.91q0.5-2.6.75-3.66a8.93,8.93,0,0,1,2.75-2.94,15,15,0,0,0,2.75-2.19,8.89,8.89,0,0,1,3.76-.89c1.17,0,2.33,0,3.51-.09q4.75-.22,5,4.24a24,24,0,0,1,.37,2.55,8,8,0,0,0,.63,2.5,4.08,4.08,0,0,1,.25,1.33,2.17,2.17,0,0,0,.25,1.08q1.25,3,2.13,5.83a21.39,21.39,0,0,1,.88,6.33q1.75,0.9,3.63,1.76a11.64,11.64,0,0,0,3.38,1.06,6,6,0,0,0,3.25-.16,9.94,9.94,0,0,0,2.5-.76l2.5-.51a76.7,76.7,0,0,0,8.51-10q3.5-5,2.25-10a109.79,109.79,0,0,0-3.76-14,45.51,45.51,0,0,0-5-9.74,23.82,23.82,0,0,0-2.63-3.09,12.85,12.85,0,0,0-3.13-2.24c-0.67-.53-1.29-1-1.88-1.37a23,23,0,0,1-1.88-1.37,9.23,9.23,0,0,1-4-4.69,9.92,9.92,0,0,1-5.76-3.33,5.79,5.79,0,0,0-1.13-1.77,16.52,16.52,0,0,0-1.38-1.22,7.1,7.1,0,0,1-1.75-2.15,20,20,0,0,0-1.13-1.77,10.69,10.69,0,0,1-1.13-2,6.64,6.64,0,0,1-1.75-1.14,19.35,19.35,0,0,1-3.63-3.14,26.51,26.51,0,0,1-2.88-3.79q-0.75-1.1-1.5-2.45t-1.5-2.45a14,14,0,0,1-2.75-7.45c0-1.33,0-2.53-.13-3.61s-0.12-2.27-.12-3.6q0-3.51-.25-6.71a20.2,20.2,0,0,0-1.5-6.21q-1-2.3.25-5.81a7.38,7.38,0,0,0,.63-2.13,10.6,10.6,0,0,1,.63-2.38q0.5-2.1.88-3.93c0.25-1.22.54-2.45,0.88-3.68a3.36,3.36,0,0,0,.5-2.1,17.58,17.58,0,0,1,.88-3.81,30.71,30.71,0,0,1,1.63-3.71q8-14.15,22.78-18.66a33.8,33.8,0,0,1,5.38-1.6c1.75-.36,3.54-0.64,5.38-0.85l0.88,0.7L619.7,69a10,10,0,0,1,2.5-.76q8.76-3.53,15.52,1.35a28,28,0,0,1,3.51,3.29A44.08,44.08,0,0,1,644,76.34a15.55,15.55,0,0,1,3.51,9.05,6.85,6.85,0,0,0,1,3.8,5.48,5.48,0,0,1,1.25,4V102a4.86,4.86,0,0,1-1,3.21,23.4,23.4,0,0,0-2,2.66,6.85,6.85,0,0,1-4.76,3l-3.25.66-3.38.19c-1.09.06-2.3,0.13-3.63,0.24a34.29,34.29,0,0,0-1.63-3,31.73,31.73,0,0,1-1.63-3,5,5,0,0,1-.25-1.7c0-.66,0-1.25,0-1.75a4.61,4.61,0,0,1,.5-1.85,2.38,2.38,0,0,0-.5-2.9q-1.75-1.64-3.51-3.42a13.69,13.69,0,0,0-4-2.81l-1.25-1q-1.75.11-3.25,0.29c-1,.12-2.09.22-3.26,0.29l-1,1.2-1,1.21a6.42,6.42,0,0,1-1.25,1.13,6.43,6.43,0,0,0-1.25,1.13q-1,1-1.88,1.76a17.4,17.4,0,0,0-1.63,1.71q-4.26,5.63-2.75,11.33c0.16,0.63.29,1.24,0.38,1.8a6.76,6.76,0,0,1-.13,2.16l-1,1.2-1,1.21v1a24.5,24.5,0,0,0,2.38,6.9,55.48,55.48,0,0,0,3.63,5.89q2,2.85,4.26,5.52t4.26,5.52a7.14,7.14,0,0,0,2.76,2.44,18.89,18.89,0,0,1,8.26,7.33l1,1.3a5.91,5.91,0,0,0,1,1,7.47,7.47,0,0,0,2.25,2,33.18,33.18,0,0,0,4.26,2.89q2.25,1.3,4.51,2.84a8.59,8.59,0,0,1,1.75,2.4,45.34,45.34,0,0,1,2.63,5.6l2.38,6.15,3,9.91a23.7,23.7,0,0,1,1,4.68q0.25,2.33.5,5,0,2.25,0,4.51a42.62,42.62,0,0,1-.25,4.56q0,2-.12,4.16t-0.13,4.16a36.76,36.76,0,0,1-2.88,13.23A52.81,52.81,0,0,1,639.48,238a12,12,0,0,1-2.63,2.41q-1.38.91-2.63,1.66-2.25,1.21-4.63,2.2a29.12,29.12,0,0,0-4.63,2.45,4,4,0,0,1-1.5.56ZM587.9,104.79a4,4,0,0,0,1.25.75l0.5-.1v-0.75Q589.15,103.54,587.9,104.79Zm1.25,17.77,0.5-.35a0.18,0.18,0,0,0-.25-0.2l-0.75-.6-0.25.05v0.75a0.52,0.52,0,0,0,.37.17A0.57,0.57,0,0,1,589.15,122.57Zm1.75,6.4a0.57,0.57,0,0,0-.38-0.17,0.53,0.53,0,0,1-.37-0.17,0.6,0.6,0,0,1-.12.4,0.6,0.6,0,0,0-.13.4,2,2,0,0,0,.38.55,2.35,2.35,0,0,1,.38.55l0.25-.05,0.25-.3A2.52,2.52,0,0,0,590.9,129Zm2.25,100.19q-1.26,3,.25,5l0.5-.1,0.25-.3a15.13,15.13,0,0,0-.12-2.1c-0.09-.56-0.21-1.17-0.38-1.8A1.09,1.09,0,0,0,593.16,229.16Zm5.26-139.28a0.58,0.58,0,0,0-.25-0.45,1.2,1.2,0,0,0-1-.3,1.8,1.8,0,0,0-.5,1.1,0.36,0.36,0,0,0,.5.4,3.66,3.66,0,0,0,.63-0.5,3.83,3.83,0,0,1,.63-0.5,4.74,4.74,0,0,0,.25,2,0.36,0.36,0,0,0,.5.4,0.56,0.56,0,0,0,.5-0.6,1.68,1.68,0,0,0-.25-2A1.76,1.76,0,0,1,598.41,89.88Zm2.25-5.72q0.25,0.7.37,1.18a3.82,3.82,0,0,1,.13,1,8.68,8.68,0,0,1,1.63-.21A1.48,1.48,0,0,0,603.92,85Q603.42,84.11,600.67,84.16Zm16,74.35q-2.25.21-2.75,1.56a0.84,0.84,0,0,0,.25.7,0.18,0.18,0,0,0,.25.2l0.25-.05A4,4,0,0,0,616.69,158.52ZM624,235.41a2.37,2.37,0,0,1-.75.4,2.45,2.45,0,0,0-.75.4,2.76,2.76,0,0,0,.75.85c0.67,0.2,1,0,1-.45a0.87,0.87,0,0,0-.13-0.6,0.86,0.86,0,0,1-.12-0.6,9.69,9.69,0,0,0,2-.91l0.5-1.1C625,234,624.12,234.71,624,235.41Zm8.51-65.58a0.56,0.56,0,0,1-.25-0.45,0.58,0.58,0,0,0-.25-0.45,0.9,0.9,0,0,0-.75-0.1,0.28,0.28,0,0,0-.25.3v0.5a3,3,0,0,1,.75.85l0.25-.05Zm3.25,49.92-0.25-.2c-0.5-.73-0.92-0.48-1.25.76v0.25A1.17,1.17,0,0,0,635.72,219.74Zm2-29.2,0.38-.83,0.37-.83a0.18,0.18,0,0,1-.25-0.2l-0.25-.2a0.18,0.18,0,0,0-.25-0.2,0.28,0.28,0,0,0-.25.3l-0.25.3a0.28,0.28,0,0,1-.25.3A2.38,2.38,0,0,0,637.72,190.54Z" transform="translate(-7.95 -4.69)"/><path class="cls-1" d="M716.6,223.74a14.74,14.74,0,0,0-.75,1.4,5.13,5.13,0,0,1-.75,1.15,11.43,11.43,0,0,1-5.38,5.45,23.78,23.78,0,0,1-6.89,2,4.71,4.71,0,0,1-4.76-2.31,10.78,10.78,0,0,1-2-6.36V207.55a41.73,41.73,0,0,0-.38-5.56,16.84,16.84,0,0,0-1.63-5.31,5.54,5.54,0,0,1,0-4,20,20,0,0,0,1-6.46,10.64,10.64,0,0,1,.25-3.81,13,13,0,0,0-1-10.57,4.3,4.3,0,0,1-.75-1.1V155a11.07,11.07,0,0,1,.12-1.78,4.28,4.28,0,0,0-.12-1.73,3.78,3.78,0,0,0-.75-2.1,15,15,0,0,1-2-4q-0.75-2.23-1.5-4.58a59.73,59.73,0,0,1-2.75-9.84q-1-5.18-2.25-10.19a115.48,115.48,0,0,0-3.76-12q-2-5.1-3.63-10.29T674,87.78q-0.25-1.95-.5-3.78a15.32,15.32,0,0,0-1-3.68,1.89,1.89,0,0,1-.25-0.95,2,2,0,0,0-.25-1q0-.75,0-1.5a16.66,16.66,0,0,1-1.63-5.31,16.83,16.83,0,0,0-1.63-5.31q-1-2.55-1.75-5.15a30,30,0,0,0-2-5.1,113.15,113.15,0,0,0-7.76-16,4.62,4.62,0,0,1-.75-1.48,4.45,4.45,0,0,0-.75-1.48A15.94,15.94,0,0,0,649.62,30a23.09,23.09,0,0,0-9.39-3,16.22,16.22,0,0,0-7.76,1.58q-1.75,1.11-3.5,2.09c-1.17.66-2.34,1.27-3.51,1.84a4.07,4.07,0,0,0-2.5,2.51,9.3,9.3,0,0,1-4.51,4.67q-1.25.76-2.5,1.64T613.44,43a6.48,6.48,0,0,0-.88-0.2,1.87,1.87,0,0,1-.88-0.45,18.05,18.05,0,0,1-2.38-1.14,18.39,18.39,0,0,0-2.38-1.14,10.67,10.67,0,0,1-2.75-1.94,5.29,5.29,0,0,1-1.25-3.5q0-2,.13-3.28a14.19,14.19,0,0,1,.38-2.2,5.47,5.47,0,0,1,1.13-2l2.38-2.86q1.26-1.51,2.63-2.91a20.82,20.82,0,0,1,2.88-2.47q1.25-1,2.25-1.71c0.67-.47,1.42-1,2.25-1.46a17.71,17.71,0,0,0,1.88-1.51,19.83,19.83,0,0,1,1.88-1.51,29.19,29.19,0,0,1,11.77-5.4q5-1.27,10.27-2.09a25.47,25.47,0,0,1,6.76-.5A35.47,35.47,0,0,1,656,5.8a34.1,34.1,0,0,1,10.27,4.68,22.85,22.85,0,0,1,7.26,8.3,16.47,16.47,0,0,1,.88,1.83,6.24,6.24,0,0,0,1.13,1.78,22.51,22.51,0,0,1,3,5.9q3,7.16,5.63,14.27t5.13,14.62q0.5,1.15.88,2.33a8.69,8.69,0,0,0,1.13,2.28,1.27,1.27,0,0,1,.5,1,2.17,2.17,0,0,0,.25,1.08q1,4.06,2,7.74t2,7.48a55.88,55.88,0,0,1,2.25,13.57,11.47,11.47,0,0,0,1,5.06,20.07,20.07,0,0,1,1,3.56,36,36,0,0,1,1.75,8.16,6,6,0,0,0,.25,2,7.34,7.34,0,0,1,.88.33,5,5,0,0,1,.88.58,7,7,0,0,0,.5,1.9,0.52,0.52,0,0,0,.25.58,1,1,0,0,1,.5.53,1.2,1.2,0,0,0,1.25.13,1.63,1.63,0,0,0,1-.82,4,4,0,0,0,.75-2.15,7,7,0,0,1,.37-2.33c0.25-.71.54-1.44,0.88-2.18a61.06,61.06,0,0,0,2.13-5.93,20.62,20.62,0,0,0,.88-5.93,30.24,30.24,0,0,1,1.25-8q0.75-2.9,1.63-6.08a51.07,51.07,0,0,1,2.13-6.18,40.32,40.32,0,0,0,2-6.15,27.55,27.55,0,0,0,.75-6.41,23.83,23.83,0,0,1,2.5-8.26,15,15,0,0,1,8.51-7.18,6,6,0,0,1,2-.64l1.63-.32a5.81,5.81,0,0,0,1.63-.57l1.5-.79,1.5-.79q3-.59,3.76,2c0.16,0.47.33,1,.5,1.53s0.33,1.06.5,1.53a14.57,14.57,0,0,1-.25,7.06q-1.25,4.5-2.5,8.75t-2.5,8.75l-0.75,3.15a33.65,33.65,0,0,0-1.88,5.88q-0.63,2.88-1.13,5.73A67.68,67.68,0,0,1,734,96.51a57.66,57.66,0,0,1-2.38,7.35,21.94,21.94,0,0,0-1.5,4.55q-0.5,2.35-1,4.7a15.54,15.54,0,0,1-1.25,5.25q-1.75,4.1-3.13,8.25T722.35,135q-1,4-1.88,7.88t-1.63,7.83a23.78,23.78,0,0,0-.63,4q-0.13,1.9-.37,4a20.61,20.61,0,0,0,.25,7.21,20.87,20.87,0,0,1-.25,9.56,9.67,9.67,0,0,1-.5,2.85,67.52,67.52,0,0,0-.75,9.66q0,15.9,0,31.8Q716.6,221.74,716.6,223.74ZM680.54,72.95a0.85,0.85,0,0,0,.63.5,1.3,1.3,0,0,1,.63.25c0.33,0.27.5,0.15,0.5-.35q0-.25,0-0.5a2.58,2.58,0,0,1-.88,0A2.76,2.76,0,0,0,680.54,72.95Zm21.28,63.34a2.36,2.36,0,0,0-1.5,2.05l0.25,0.2,0.5-.1a6.07,6.07,0,0,0,.38-1.08A6,6,0,0,1,701.82,136.29Zm1.75,9.92a1.24,1.24,0,0,0,.25,1,1.18,1.18,0,0,0,1,.3c0.17,0.13.21,0,.13-0.28a4.36,4.36,0,0,0-.38-0.93A2,2,0,0,1,703.58,146.21Zm2.75-14.32a1.56,1.56,0,0,0-.75-2.35l-0.5.35a1.24,1.24,0,0,0,0,1.5A0.86,0.86,0,0,0,706.33,131.88ZM707.08,162c-1.34.6-1.84,1.37-1.5,2.3l0.25,0.2a0.33,0.33,0,0,0,.5-0.1,1.78,1.78,0,0,0,.75-1.28C707.08,162.74,707.08,162.37,707.08,162Zm1.5-7.56a0.9,0.9,0,0,0,.25-0.55,0.9,0.9,0,0,1,.25-0.55,0.36,0.36,0,0,0-.5-0.4l-0.5.35v1.25Zm2.75-22.08c0,0.34.08,0.48,0.25,0.45q0.75,1.61,1.75-.1l0.5-1.1v-0.5a5.4,5.4,0,0,1-1.25.62A5.67,5.67,0,0,0,711.34,132.39Z" transform="translate(-7.95 -4.69)"/><path class="cls-1" d="M434.36,504.22q0-5.5,0-10.89t0.5-11c0.16-.69.29-1.35,0.37-1.95a6.39,6.39,0,0,0-.12-2.1q0-3.5,0-7c0-2.33-.09-4.66-0.25-7V454a145.56,145.56,0,0,1,.75-19.17,10.2,10.2,0,0,0,.38-3.45q-0.13-1.6-.38-3.56c-0.17-1.47-.29-3-0.37-4.56a32.28,32.28,0,0,1,.12-4.91,19.64,19.64,0,0,0,1.5-2.29q0-.37,0-0.75a6.77,6.77,0,0,1-1.25-4q-0.25-2.21-.5-4.41a39,39,0,0,1-.25-4.46,16.86,16.86,0,0,1,0-4.13,35.08,35.08,0,0,1,.75-4.27,10,10,0,0,0,.25-5.81,5.68,5.68,0,0,1-.5-2.29q0-1.12,0-2.38V370.83q0-1.25-.12-2.61a8.33,8.33,0,0,0-.63-2.51,9.68,9.68,0,0,1-.25-5,1.19,1.19,0,0,1,.25-0.8,8.19,8.19,0,0,0-3-8.46,22.27,22.27,0,0,0-4-2.64,13.17,13.17,0,0,0-4.76-1.25,7.3,7.3,0,0,1-2.25-.09,8.84,8.84,0,0,0-3.51-.61,27.7,27.7,0,0,0-3.76.44q-3,.55-6.14,1t-6.13,1a110.42,110.42,0,0,0-11.27,1.63,79.53,79.53,0,0,0-11,3.06q-2,.85-4,1.57t-4,1.57l-4.51,1.77a22.63,22.63,0,0,1-4.51,1.26,19.59,19.59,0,0,1-5.51,3.81q-3,1.38-5.76,2.84a17.86,17.86,0,0,1-2.38,1.14,18.78,18.78,0,0,0-2.38,1.14,23.62,23.62,0,0,0-7.51,6,1.42,1.42,0,0,0-.63.72,0.71,0.71,0,0,1-.63.48,9.36,9.36,0,0,0-2.13,1.59,14,14,0,0,0-1.63,2,22,22,0,0,1-3.5,4.07q-2.25,2.36-4.63,4.74t-4.88,4.52a18.45,18.45,0,0,0-3.76,4.09,7.38,7.38,0,0,0-.88,1.26,3,3,0,0,0-.37,1.44,6.86,6.86,0,0,1-1.75,3.27,23,23,0,0,0-3.76,5.21q-1.5,2.86-2.75,5.8a97.94,97.94,0,0,0-4.26,13.16l-3,10.21a53.38,53.38,0,0,0-2.5,10.89l-0.75,5.37a20.83,20.83,0,0,0-.75,5.24q0,2.38,0,5.13a64.5,64.5,0,0,0,.13,9q0.38,4.45.88,8.88,0.5,4.94,1.38,9.56a45.06,45.06,0,0,0,2.63,8.87q1.25,3.07,2.5,6.14l2.5,6.13a11.37,11.37,0,0,0,1.13,2.08,21.71,21.71,0,0,0,1.38,1.79,93.06,93.06,0,0,0,15.78,15.08,24.67,24.67,0,0,0,6.13,3.79q3.38,1.47,6.89,2.65,3.5,1.45,6.63,2.43t6.63,2.42a42.36,42.36,0,0,0,9.52,2.16q2.75,0.29,5.13.64a38.17,38.17,0,0,0,5.13.38A117,117,0,0,0,390.55,545a64.38,64.38,0,0,0,10.39-2.22q5.13-1.54,10.14-3.2,1.5-.52,3-1.17t3-1.42q2.75-1.26,5.76-2.55c2-.87,3.92-1.81,5.76-2.82a63.45,63.45,0,0,0,9.51-5.78,28.57,28.57,0,0,1,5.26-3.49,41.08,41.08,0,0,0,3.88-2.48,41.75,41.75,0,0,0,3.63-2.94,2.08,2.08,0,0,0,1.25-1.24,9,9,0,0,1,2.38-2.71,22.64,22.64,0,0,1,2.88-1.8,36.38,36.38,0,0,1,3.25-4.25q1.75-2,3.51-3.8l4.51-4.62a14.69,14.69,0,0,1,2.75-2.28,10.07,10.07,0,0,1,4.63-2.4,16.45,16.45,0,0,1,4.88-.2,3,3,0,0,1,2.5,1.52q0.75,0.86,1.5,1.59a23,23,0,0,0,1.75,1.53,4.19,4.19,0,0,1,1.5,3.46,20.87,20.87,0,0,1-1,6.7,15.15,15.15,0,0,1-4.26,6.34,1.82,1.82,0,0,0-.63.62,1.79,1.79,0,0,1-.63.62,91,91,0,0,0-10.27,10.5,2.46,2.46,0,0,0-.75.77,1.07,1.07,0,0,1-.75.52,9.82,9.82,0,0,0-2.13,1.66c-0.59.61-1.21,1.32-1.88,2.11a7.55,7.55,0,0,0-.75,1,8.34,8.34,0,0,1-.75,1l-2.5,3a13.88,13.88,0,0,1-2.75,2.53,18.63,18.63,0,0,0-3,11.59q0,0.25,0,.5a30.53,30.53,0,0,1,.25,6.71q-0.25,3.3-.5,6.86a11.93,11.93,0,0,1-.25,2.43,5.63,5.63,0,0,0,0,2.38,3.93,3.93,0,0,1,0,2.75,12.84,12.84,0,0,1-1.5,2.79,17.08,17.08,0,0,1-1.25,2.24c-0.5.76-1.09,1.62-1.75,2.59a9.43,9.43,0,0,0-2,.88,15.92,15.92,0,0,1-2.75.77,19.67,19.67,0,0,0-3,.82,6.69,6.69,0,0,1-3,.06,2.18,2.18,0,0,0-1.75-.17,8.78,8.78,0,0,1-5.13-2.17q-1.88-1.78-2.13-6a10,10,0,0,1,.25-5.05,13.81,13.81,0,0,0,.5-3.6,11.78,11.78,0,0,0-.5-3.41,6.81,6.81,0,0,0-.12-1.35,11,11,0,0,0-.37-1.31q-1.26-3.77-5.26-2.53a11.2,11.2,0,0,1-2.25,1,10.89,10.89,0,0,0-2.25,1,34,34,0,0,1-4.63,2q-2.38.81-4.88,1.76l-6.89,1.75a49.94,49.94,0,0,0-6.64,2.19,14.06,14.06,0,0,0-1.88.46,14.84,14.84,0,0,1-1.88.46l-12,2.11a21.23,21.23,0,0,1-7,0,48.51,48.51,0,0,0-7.14-.78q-3.63-.13-7.14,0A64.51,64.51,0,0,1,341,566.16a87.47,87.47,0,0,1-23.54-9.77l-5-3.23-5-3.24a23.06,23.06,0,0,1-4.51-3.83l-3.88-3.8q-1.88-1.84-3.63-3.84c-0.84-.88-1.63-1.76-2.38-2.65a21,21,0,0,0-2.38-2.41,13,13,0,0,1-3.5-5.5,7.55,7.55,0,0,0-1.75-3c-0.5-.93-1-1.87-1.38-2.81a25.15,25.15,0,0,1-1.13-3.09,10.36,10.36,0,0,0-.88-2.76c-0.42-.85-0.88-1.75-1.38-2.68q-1.26-2.32-2.38-4.67a20,20,0,0,1-1.63-5q-0.51-1.93-.75-3.15-0.25-3-.37-5.83a47.42,47.42,0,0,0-.63-5.8,54.83,54.83,0,0,1-.5-7.44,50.13,50.13,0,0,0-.5-7.19,47.35,47.35,0,0,1-.25-4.85q0-2.38,0-4.63a28.12,28.12,0,0,1,0-7.51q0.5-3.82,1-7.4a144.5,144.5,0,0,1,3-16.45q0.75-3.11,1.75-6.26t1.75-6.51a4.52,4.52,0,0,0,.63-1.72,6.91,6.91,0,0,1,.63-2,44.45,44.45,0,0,1,3-9.07q2-4.42,4.51-8.79A131.87,131.87,0,0,1,303.16,380l1.63-1.87a9,9,0,0,1,1.88-1.66q3.5-3.29,7.14-7t7.14-7q1.75-1.78,3.38-3.53t3.63-3.58a24,24,0,0,1,3.13-2.63,19,19,0,0,1,3.63-2q1.5-.74,2.88-1.47t2.63-1.42c0.83-.64,1.67-1.23,2.5-1.79s1.67-1.06,2.5-1.54a54.92,54.92,0,0,1,5.76-3.2,5.06,5.06,0,0,1,1.38-.48,2.81,2.81,0,0,0,1.13-.44q2.75-1.2,5.26-2.38a30.39,30.39,0,0,1,5.26-1.89c1-.33,2-0.72,3-1.14a24.44,24.44,0,0,0,2.75-1.35,20.71,20.71,0,0,1,6.26-2.07,8.36,8.36,0,0,0,2.5-.31,8.82,8.82,0,0,1,2.5-.31,23.18,23.18,0,0,0,5.51-1.71,45,45,0,0,1,6.89-2.09q3.38-.72,6.89-1.35a19.12,19.12,0,0,1,2.25-.28,18.14,18.14,0,0,0,2.25-.28,28.67,28.67,0,0,0,7-1.76,24.17,24.17,0,0,1,11.27-1.81q2,0.14,2.75.24a30.33,30.33,0,0,0,4.13,0,35.63,35.63,0,0,0,4.13-.52q2.75-.51,5.13-0.83a37.75,37.75,0,0,0,5.13-1.09,9.93,9.93,0,0,1,4.26.07q2,0.5,4,1.12A1.82,1.82,0,0,1,453.9,322a23.7,23.7,0,0,1,2.5,4,13.8,13.8,0,0,1,1.25,4.77,12.69,12.69,0,0,0,.5,3.16,23.55,23.55,0,0,1,.25,3.33,16.31,16.31,0,0,1-.5,3.73,37.56,37.56,0,0,0-1,9.21,6.32,6.32,0,0,1,0,2.51,40.21,40.21,0,0,0,1,9.57,28.4,28.4,0,0,1,.63,7.64,61.64,61.64,0,0,1-.63,7.88,2.51,2.51,0,0,0-.25,1.05,2.56,2.56,0,0,1-.25,1.05,8.19,8.19,0,0,1-.25,2.3,10.06,10.06,0,0,1,1,4.44q0,2.38,0,4.88-0.51,4.61-.63,9.26t0.13,9.11q0.24,4.72.12,9.24t-0.12,9.29q0,2.88,0,5.76a4.12,4.12,0,0,0,.5,2.41q1.75,2.67,4.76.35a2.66,2.66,0,0,0,1.25-1q0.5-1.09.88-2c0.25-.64.54-1.31,0.88-2q1.25-2.5,2.5-4.49,2-3.14,3.76-6.48t3.76-6.74q1.25-2.5,2.63-5c0.92-1.68,1.79-3.27,2.63-4.77q1.75-3.1,3.25-6t3-6c0.66-1.47,1.33-2.8,2-4s1.42-2.49,2.25-3.82a11.33,11.33,0,0,0,1.75-3.6,14.62,14.62,0,0,1,4-6.54,0.93,0.93,0,0,0,.25-0.43,0.9,0.9,0,0,1,.25-0.42q0-.88,0-1.75a7.6,7.6,0,0,0,.88-1.3q0.37-.7.88-1.55a3.38,3.38,0,0,0,.5-1.73,2.23,2.23,0,0,1,.5-1.48,86.33,86.33,0,0,1,4.26-8.1l2-3.4q1-1.7,2.25-3.45a19.78,19.78,0,0,0,3.5-7.2,17.41,17.41,0,0,1,1.38-3.53q0.87-1.68,1.88-3.38,1.25-2.25,2.25-4.33t2.25-4.33L525,318.9q1-2,1.88-3.63a37.84,37.84,0,0,0,1.63-3.58,10.78,10.78,0,0,1,2.25-4,33.77,33.77,0,0,0,2.25-3,12.6,12.6,0,0,1,3.76-3.76,28.14,28.14,0,0,1,4.76-2.46,6.54,6.54,0,0,1,3.5-.71q7.76,0.69,9.26,7.9a9.46,9.46,0,0,0,.25,2.7L553,311a9.58,9.58,0,0,0-2,4.41,14.09,14.09,0,0,1-2.5,6q-2.51,4.77-5.13,9.3T538.27,340a18.26,18.26,0,0,0-1.75,3.23c-0.5,1.19-1,2.33-1.5,3.43q-1.75,3.61-3.51,7t-3.76,6.76a23.62,23.62,0,0,0-3.25,7.66,17.81,17.81,0,0,1-3.76,6.76A5.1,5.1,0,0,0,520,376a33.19,33.19,0,0,1-2,4.91q-1.26,2.51-2.5,4.75l-3.25,5.78L509,397.21a53.46,53.46,0,0,0-5.51,12.1,27.59,27.59,0,0,1-1.13,2.6,25.25,25.25,0,0,0-1.13,2.6,11.46,11.46,0,0,0-1.75,6.1q0,1.75,0,3.51a16,16,0,0,0,2.75,10,31.8,31.8,0,0,0,1.63,3.06q0.87,1.46,1.63,2.81l3.76,6.77q0.25,0.45.5,1a10.13,10.13,0,0,0,.5,1,26,26,0,0,0,2.13,6.09q1.37,2.74,2.63,5.49a58.71,58.71,0,0,0,2.75,5.33q1.5,2.59,2.75,5.34,0.5,1.16.88,2.08c0.25,0.62.54,1.31,0.88,2.08a42.42,42.42,0,0,0,2.5,6.39q1.5,3.08,3,6.28a3.24,3.24,0,0,1,.63,1.25,1.67,1.67,0,0,0,.63,1q1.75,3.91,3.25,7.61a47.62,47.62,0,0,0,2.38,5.53q1.38,2.73,2.63,5.48l2.38,4.78q1.13,2.28,2.38,4.78,1.25,3,2.63,5.6a40.25,40.25,0,0,0,3.13,5,17.92,17.92,0,0,1,1.75,2.78q0.75,1.47,1.5,2.83,1.25,2.75,2.63,5.48t2.88,5.43a41.7,41.7,0,0,0,2.88,5.68,38.61,38.61,0,0,0,3.63,5,19.7,19.7,0,0,1,1.38,2.35q0.62,1.25,1.38,2.6,0.75,1.6,1.5,3.07a6.18,6.18,0,0,0,2.25,2.42,9,9,0,0,0,3.26,6.35,11.71,11.71,0,0,1,1.75,2.4,11.88,11.88,0,0,0,1.75,2.4,7.55,7.55,0,0,0,1.25,2,10.1,10.1,0,0,1,1.25,1.75,2.16,2.16,0,0,0,.37.55,2.2,2.2,0,0,1,.38.55,15.68,15.68,0,0,0,2.75,4.57q1.75,2,3.5,4.17c0.33,0.43.63,0.83,0.88,1.2s0.54,0.77.88,1.2a14.71,14.71,0,0,0,1.75,1.27,10.69,10.69,0,0,0,2.75.56q1.25,1.25,2.38,2.52c0.75,0.85,1.54,1.77,2.38,2.77a10.75,10.75,0,0,0,4.51,3.59l7.51,3.73a28.34,28.34,0,0,0,8.26,3.07,58.34,58.34,0,0,0,8.64,1.62q4.38,0.48,8.89,1.07a11,11,0,0,0,6.76-1.13,7.45,7.45,0,0,1,3.76-.76,5.86,5.86,0,0,0,2.75-.18c1-.29,2-0.53,3-0.74a15.44,15.44,0,0,1,6-4.48c0.83-.5,1.63-1,2.38-1.36a23.27,23.27,0,0,1,2.38-1.11,10.8,10.8,0,0,1,2.38-1.11c0.75-.24,1.54-0.52,2.38-0.86a8.36,8.36,0,0,0,1.88-2,19.11,19.11,0,0,0,1.13-2.1,43.57,43.57,0,0,1,7.26-10,14.57,14.57,0,0,0,2-2.91,1.7,1.7,0,0,1-.25-0.83,1.75,1.75,0,0,0-.25-0.83,12.41,12.41,0,0,1,2.75-4.31,11.55,11.55,0,0,0,2.5-5.76,25.15,25.15,0,0,0,.63-4.38,13.54,13.54,0,0,0-.38-4.18c-0.17-.8-0.34-1.48-0.5-2a9.08,9.08,0,0,0-.75-1.73l-1-1.3-1-1.3a4.37,4.37,0,0,1-1.38-1.72q-0.38-.93-0.88-2.08c-0.17-.81-0.34-1.48-0.5-2s-0.34-1.14-.5-1.77a10.25,10.25,0,0,1,2.5-8.52q1.25-1.51,2.13-2.68t2.13-2.68a14,14,0,0,1,6.39-1.66,17.82,17.82,0,0,1,5.88,1,5.06,5.06,0,0,1,3,2.15q1.25,1.76,2.25,3.31a30.59,30.59,0,0,0,2.25,3.06l0.75,1.35a34.28,34.28,0,0,1,3.26,14.37,23.25,23.25,0,0,1-1,7q-0.5,2.1-1.13,4.36t-1.13,4.61A70.71,70.71,0,0,1,701.15,587a104.91,104.91,0,0,1-4.88,10.24,61.22,61.22,0,0,1-6,8.71,23.29,23.29,0,0,0-3.5,4.21l-3.38,4.06a28.06,28.06,0,0,1-3.63,3.61,19.25,19.25,0,0,0-2.75,3.06,17.74,17.74,0,0,1-1.63,1.71,13.76,13.76,0,0,1-2.13,1.56q-1.25.75-2.5,1.38c-0.84.42-1.67,0.88-2.5,1.38q-2.76,1.31-5.26,2.56t-5,2.77a29.24,29.24,0,0,1-11,3.49c-1.34.27-2.63,0.49-3.88,0.66s-2.54.31-3.88,0.41a24.31,24.31,0,0,0-3.38.44l-3.38.69a21.63,21.63,0,0,1-8,.13,28,28,0,0,0-4.88-1q-2.38-.27-5.13-0.45a16,16,0,0,1-3.76-.61q-1.75-.52-3.5-1.16a21.21,21.21,0,0,0-2.63-.84,32.16,32.16,0,0,1-3.13-1,9,9,0,0,0-1.75-1.52,5.71,5.71,0,0,0-2.5-.87,21,21,0,0,1-6.76-2,33.09,33.09,0,0,1-5.76-3.71,10.85,10.85,0,0,0-1.75-1.64q-2.51-2.25-5-4.37t-5-4.37q-2.26-2.3-4.51-4.47t-4.51-4.47l-1-1.3a12.26,12.26,0,0,1-1-1.55,108.94,108.94,0,0,0-7.51-10.25,19.18,19.18,0,0,1-5.51-8.91c-0.34-.77-0.67-1.58-1-2.43a2.88,2.88,0,0,0-2-1.72,0.92,0.92,0,0,1-.75-1.1q-1-2.3-1.5-3.2-0.51-1.15-.88-2.2a5.82,5.82,0,0,0-1.13-1.9,71.9,71.9,0,0,1-3.63-6.28,35,35,0,0,0-3.88-6c-0.5-.74-1-1.43-1.38-2.1s-0.88-1.37-1.38-2.1a22.8,22.8,0,0,1-2.75-6.71c-0.17-.8-0.29-1.53-0.37-2.18a8.09,8.09,0,0,0-.63-2.13c-0.34-.77-0.67-1.49-1-2.18a3.14,3.14,0,0,0-1.75-1.52,1.53,1.53,0,0,1-.38-0.43,1,1,0,0,0-.63-0.38,17.27,17.27,0,0,0-1-4.18,16.57,16.57,0,0,0-2-3.73q-2.51-4.26-4.26-7.92a18.8,18.8,0,0,1-.88-2.45,20.76,20.76,0,0,0-.88-2.45c-0.34-.76-0.67-1.49-1-2.18s-0.67-1.41-1-2.18a96.53,96.53,0,0,0-4.38-10q-2.38-4.66-5.13-9.13a13.54,13.54,0,0,1-1.25-2.26,47.35,47.35,0,0,0-3-7.42q-1.75-3.41-3.76-6.77Q494,476,493,473.85a20.63,20.63,0,0,1-1.5-4.84,21.55,21.55,0,0,0-1.38-3.74A11.49,11.49,0,0,0,487.7,462a13.52,13.52,0,0,1-1.25-2.26q-0.75-1.36-1.38-2.74t-1.13-2.54a3,3,0,0,0-3.25-1.37,2.63,2.63,0,0,1-.88,0,1.31,1.31,0,0,0-.88.3,4.15,4.15,0,0,0-3,2.33,13,13,0,0,1-1.13,2.35,12.77,12.77,0,0,0-1.13,2.35q-2.51,6-5.38,11.43t-6.38,10.87q-1,1.95-2,3.76c-0.67,1.22-1.34,2.38-2,3.51a43,43,0,0,1-2.38,3.84,19.76,19.76,0,0,1-2.88,3.18,21,21,0,0,0-2.38,2.2q-1.13,1.22-2.38,2.45a28.19,28.19,0,0,1-5.51,4.79q-3.51,2.16-6-.13a4.33,4.33,0,0,1-.88-1A5.69,5.69,0,0,0,434.36,504.22Zm-148-22c-1.34-.64-2.25-0.59-2.75.15a10.47,10.47,0,0,1-.5.95,1.71,1.71,0,0,0-.25.91,2.14,2.14,0,0,0,2-.29Zm-0.5-22c0.33-.38.42-0.64,0.25-0.79a2.23,2.23,0,0,1-.5-0.68l-0.5.07-0.25.28A2.16,2.16,0,0,0,285.89,460.22Zm-0.5,18.1a1.15,1.15,0,0,0,.75.39,0.54,0.54,0,0,0,.5-0.82l-0.25-.22a0.19,0.19,0,0,1-.25-0.21Zm0.5-9.84c-0.5.57-.59,0.92-0.25,1a1.15,1.15,0,0,0,.75.39l0.5-.57-0.5-.93Zm1-24.93a1.67,1.67,0,0,0,.5-0.82l-0.5-.93a0.27,0.27,0,0,1-.25.29l-0.5.07a1.27,1.27,0,0,0,.5,1.43Zm1.5,56.37a4,4,0,0,0-1.25-.32l-0.75.86c-0.34.39-.09,0.51,0.75,0.39a0.75,0.75,0,0,0,.63-0.34A1.64,1.64,0,0,1,288.39,499.92Zm-0.25-53.8a1.27,1.27,0,0,0-1-.36l-0.5.57a0.57,0.57,0,0,0,.75.64Zm0-20.53a11.32,11.32,0,0,0,1.13.34c0.42,0.11.79,0.22,1.13,0.34a1.46,1.46,0,0,0,.12-1.52,5.09,5.09,0,0,1-.63-0.91A7.16,7.16,0,0,0,288.14,425.59Zm5.76-5.35q1-.15.5-1.32l-0.25-.22c-0.84.62-1,1.15-.5,1.58Zm1.5-8a3.38,3.38,0,0,0-1-.6l-0.25,0a1,1,0,0,0,0,1,0.91,0.91,0,0,0,.75.14Zm35.8,137a0.7,0.7,0,0,0-.75.62,0.44,0.44,0,0,0,.25.71,1.1,1.1,0,0,0,1-.16l0.25,0a0.27,0.27,0,0,0,.25-0.29C332.54,549.33,332.21,549.05,331.21,549.21Zm9-187.24-1.25-1c-0.67-.22-1-0.09-1,0.42a1.18,1.18,0,0,0,.5.92Zm9-5.73a2.21,2.21,0,0,1-.25-1.09,0.75,0.75,0,0,0-.75-0.75,8.92,8.92,0,0,1-1.25,1.71A3.77,3.77,0,0,0,349.23,356.24ZM356.74,555a14.52,14.52,0,0,0,.37,1.82,4.32,4.32,0,0,0,.63,1Q358.25,555.55,356.74,555Zm37.56,1.53a0.55,0.55,0,0,1-.25-0.33,0.57,0.57,0,0,0-.25-0.33l-0.75.13q0,0.38,0,.75a0.55,0.55,0,0,0,.37.18,0.59,0.59,0,0,1,.37.18Zm12-217.23-0.25-.21a1.09,1.09,0,0,0-1,1.18v0.25a1.72,1.72,0,0,0,1-.43A0.75,0.75,0,0,0,406.32,339.35Zm8.26,209.83a1,1,0,0,0-.25-1.21l-1-.82a6,6,0,0,0,.12,1.73A1.62,1.62,0,0,0,414.58,549.17Zm16.78-216.41a13.35,13.35,0,0,1,1,1.57l0.25,0a0.89,0.89,0,0,0,.25-0.55C432.86,333.07,432.36,332.74,431.36,332.76ZM436.12,544a4.29,4.29,0,0,1,.37.93,3.8,3.8,0,0,0,.38.93,0.61,0.61,0,0,1,.5.16l0.25-.3q0.75-.89,0-0.75a4.73,4.73,0,0,0-1.5-.72,7.19,7.19,0,0,1-.25-1.83,7.31,7.31,0,0,0-.25-1.83,0.18,0.18,0,0,0-.25-0.21,0.18,0.18,0,0,1-.25-0.2,5,5,0,0,1-1.38.88,5,5,0,0,0-1.38.88,6,6,0,0,1,.37.81,5.45,5.45,0,0,0,.38.81A13.23,13.23,0,0,0,436.12,544Zm4-198.8c0.33,0.77.75,1.11,1.25,1a4.27,4.27,0,0,0,1.75-1.83l-0.25-.2a13.45,13.45,0,0,1-1.38.63A7.6,7.6,0,0,1,440.12,345.15Zm1.5,199.27a6.52,6.52,0,0,0,.5-1.85,1.17,1.17,0,0,0-.5-0.9l-0.75.14a1.76,1.76,0,0,0-.5,1.09,2.13,2.13,0,0,0,.5.66A6.07,6.07,0,0,1,441.62,544.42Zm0.75-9.15,1.5,0.21a5.19,5.19,0,0,0,.5-1.35c0.17,0,.21-0.12.13-0.27a0.33,0.33,0,0,0-.38-0.18l-0.5.09a1.82,1.82,0,0,0-.63.62A4.84,4.84,0,0,1,442.38,535.27Zm4-94.4q1.25-1.49.75-2.4l-1.5.28a2,2,0,0,0-1.25,1.49,0.36,0.36,0,0,0,.5.41,1.69,1.69,0,0,0,.75.11A1.79,1.79,0,0,1,446.38,440.87Zm-1.25,39.79a3.26,3.26,0,0,0-.5,3.1c0,0.33.33,0.44,1,.31,0.66-.46.83-0.83,0.5-1.1a1.4,1.4,0,0,1-.5-1.16A1.42,1.42,0,0,0,445.13,480.67Zm1.75-10.84a0.32,0.32,0,0,1-.37-0.18,0.33,0.33,0,0,0-.38-0.18l-0.5.35c-0.34.73-.17,1,0.5,0.9C446.63,471.12,446.88,470.82,446.88,469.82Zm-0.75-83a0.6,0.6,0,0,1-.12.4,0.6,0.6,0,0,0-.13.4,3.2,3.2,0,0,0,.5,1.41,0.6,0.6,0,0,0,.5.15l0.25,0a1.2,1.2,0,0,0,.25-0.8,3.3,3.3,0,0,0-.5-1.41l-0.25,0C446.3,387.05,446.13,387,446.13,386.84Zm0.75,36.41c-0.17,0-.25,0-0.25-0.08s-0.09-.11-0.25-0.08a1.78,1.78,0,0,0-.5.84v0.25l0.75-.14a0.59,0.59,0,0,1,.13-0.4A0.6,0.6,0,0,0,446.88,423.25Zm1.5-26.82a1.15,1.15,0,0,0-.75-0.61c-0.5-.07-0.75.23-0.75,0.9l0.25,0.2a0.18,0.18,0,0,0,.25.2Zm-1,76.05,2.38,1.05a1.89,1.89,0,0,0,1.38-.26,12.46,12.46,0,0,1-1.13-1,16.82,16.82,0,0,0-1.38-1.24,1.76,1.76,0,0,1-.5.72A4.76,4.76,0,0,0,447.38,472.48Zm0.75-22.43A9.86,9.86,0,0,0,450,448.7c0.41-.41.79-0.81,1.13-1.22,0.17-.19.17-0.28,0-0.25a0.32,0.32,0,0,0-.25-0.33c-0.17-.05-0.25,0-0.25.17A4.82,4.82,0,0,0,448.13,450.06Zm6.26,15.09c0.83-.82,1.33-1.34,1.5-1.54a1.23,1.23,0,0,0-.25-1.2,4.78,4.78,0,0,1-1.5.91,5,5,0,0,0-1.5.91l-0.25.55A15.35,15.35,0,0,0,454.39,465.14Zm0.5,4.16a1.79,1.79,0,0,0-.5.85,0.84,0.84,0,0,0,.25.7l0.25,0,1.75-1.21a17,17,0,0,0,1.5-1.16v-0.5A8.46,8.46,0,0,0,454.9,469.31Zm1.75,55.25q0,2.51.75,3.11a9.17,9.17,0,0,1,.5-2.1A1,1,0,0,0,456.65,524.56Zm5-60.8q0-.25,0-0.5a1,1,0,0,1-.5,0,1.05,1.05,0,0,0-.5,0c-1,.19-1.25.66-0.75,1.39a0.18,0.18,0,0,0,.25.2C460.82,465,461.32,464.66,461.66,463.76Zm2.5-11.75a3.46,3.46,0,0,1-2.13.66,4.48,4.48,0,0,0-2.38.7c0.83,0,1.5,0,2,0a8.92,8.92,0,0,0,1.5-.17,3.61,3.61,0,0,0,1.13-.46q0.62-.37,1.13-0.72v-0.5a2.51,2.51,0,0,1,.25-1.05A9.35,9.35,0,0,1,464.16,452Zm0-7a0.36,0.36,0,0,1-.5-0.41l-0.5.6a0.61,0.61,0,0,1-.12.4,0.59,0.59,0,0,0-.13.4,0.36,0.36,0,0,0,.5.41l0.5-.6v-0.25A0.89,0.89,0,0,1,464.16,445Zm1.5,11.73c-0.84.16-1,.45-0.5,0.85,0,0.17.17,0.22,0.5,0.15,0.5,0.24.75-.06,0.75-0.89a0.44,0.44,0,0,1-.38-0.05A0.46,0.46,0,0,0,465.66,456.73Zm6.76-8.56a18.91,18.91,0,0,1-2.5-1.77l-0.25,0-0.5.35V447a3,3,0,0,0,2.5,1.52l0.25,0A0.92,0.92,0,0,0,472.42,448.17Zm7.51-19.74,0.5,0.4a0.89,0.89,0,0,0,1,.18c0.33-.15.42-0.28,0.25-0.42l-0.75-.6-0.75.15A0.28,0.28,0,0,0,479.93,428.44Zm5.76-.37a1.85,1.85,0,0,0-1-.56,0.83,0.83,0,0,0-.75.9,0.54,0.54,0,0,0,.75.6,0.52,0.52,0,0,0,.37-0.32A1.77,1.77,0,0,1,485.69,428.07Zm0.5-5.36a1.39,1.39,0,0,1-.37-0.42,1.55,1.55,0,0,0-.38-0.43,0.87,0.87,0,0,1-.75-0.11v0.75a1.13,1.13,0,0,0,.5.9l0.75-.15A0.91,0.91,0,0,1,486.19,422.71ZM484.69,434a2.7,2.7,0,0,0,1.5.08,1.78,1.78,0,0,0,.5-0.73,2,2,0,0,0,.5-1.35,1.37,1.37,0,0,1,1-1.2,2.76,2.76,0,0,1,.88,0,1.26,1.26,0,0,0,.88-0.3l1-1.19-1.75.34a4.09,4.09,0,0,0-2.25.69,3.74,3.74,0,0,1-.75,1.9,2.46,2.46,0,0,1-.63.88A7.93,7.93,0,0,0,484.69,434Zm2.5-25v1.25a1,1,0,0,0,1.25.76l0.75-.15a2.57,2.57,0,0,1,.75,1q0.25,0.58,1.25.13l0.5-1.1a8.82,8.82,0,0,0-2-1.24A9.91,9.91,0,0,0,487.2,409Zm2.75,36,2.25-.44a0.76,0.76,0,0,0,.25-0.93,6.17,6.17,0,0,1-.5-0.78q-1-1.06-1.75.34A1.48,1.48,0,0,0,489.95,445Zm3-27.38a1.42,1.42,0,0,0-1.75.09,8.11,8.11,0,0,1,.88.33A0.78,0.78,0,0,0,493,417.64Zm4.51-24.42-0.25-.45a2,2,0,0,0-1.5.54q0,0.25,0,.5c0.16,0.31.5,0.32,1,.05a0.52,0.52,0,0,0,.37-0.32A0.52,0.52,0,0,1,497.46,393.22Zm7.76,74.08a0.59,0.59,0,0,1-.5-0.15,0.18,0.18,0,0,1-.25-0.2l-0.75.9c-0.17.2-.13,0.36,0.12,0.48a0.47,0.47,0,0,0,.63-0.12Zm3.25-90.53-0.75-.6a0.67,0.67,0,0,0-.75.15,0.62,0.62,0,0,0,0,.75,0.58,0.58,0,0,0,.5.15,0.62,0.62,0,0,1,.5.15Zm5-11.76a1.12,1.12,0,0,0-.75-0.35c-0.84.5-1,.95-0.5,1.35q0.24,0.45.75-.15a0.89,0.89,0,0,0,.25-0.42A0.89,0.89,0,0,1,513.49,365Zm5.26,128.65a16.87,16.87,0,0,0-.38-2.05,3.7,3.7,0,0,0-1.38-1.1q0.5,1.91,1,3.56l0.25,0a0.24,0.24,0,0,0,.25-0.18C518.49,493.76,518.58,493.7,518.74,493.66Zm21,51.38c0.5,0.4,1.08.28,1.75-.35Q541,544.29,539.78,545Zm3.26,2.1a1.1,1.1,0,0,0-.75-0.35l-0.25.3-0.25.3q-0.5.6,0.75,0.35Zm7,11.11a1.81,1.81,0,0,1-.88.68,1.06,1.06,0,0,0-.63.37q0,0.38,0,.75a1.1,1.1,0,0,0,.75.35,0.28,0.28,0,0,1,.25-0.3,0.28,0.28,0,0,0,.25-0.3A3,3,0,0,0,550,558.25Zm5.51,12.66a3,3,0,0,0-1-.55,1,1,0,0,0-.75.65,1,1,0,0,0,0,1,0.88,0.88,0,0,0,.75.1A1.12,1.12,0,0,0,555.55,570.91Zm27.29,34.28a5.38,5.38,0,0,0-1.5.43,4.55,4.55,0,0,0-.75.78l1-.2A2.68,2.68,0,0,0,582.84,605.18Zm36.06,19.95a1.62,1.62,0,0,1-.75,0,1,1,0,0,0-.75.28c-0.5.1-.59,0.28-0.25,0.55a0.36,0.36,0,0,0,.5.4A1.29,1.29,0,0,0,618.9,625.13Zm17.78-1.37q-1.26.26-.75,1.16a0.18,0.18,0,0,0,.25.2,1,1,0,0,0,.75-1.16ZM655,620c-0.5-.4-0.75-0.52-0.75-0.35a0.84,0.84,0,0,0-.75.9c-0.34.4-.25,0.72,0.25,1l0.75-.15a0.91,0.91,0,0,0,.25-0.55A2.27,2.27,0,0,1,655,620Zm13.52-5.49a1.28,1.28,0,0,0,.75-0.4,0.93,0.93,0,0,0,.25-0.55,0.89,0.89,0,0,1,.25-0.55A7.15,7.15,0,0,1,668,610.4a1.88,1.88,0,0,1-.5.72,0.51,0.51,0,0,0-.25.43A8.06,8.06,0,0,0,668.47,614.56ZM691,582.48l-0.5-.4-0.25.05a0.63,0.63,0,0,1-.12.4,1.1,1.1,0,0,0-.13.65,0.18,0.18,0,0,0,.25.2l0.5-.1A1.19,1.19,0,0,1,691,582.48ZM693,562a4,4,0,0,0,1.25,0,1.87,1.87,0,0,0,.75-0.65v-0.25l-0.25-.2q0-.75-0.75.15A3.14,3.14,0,0,0,693,562Z" transform="translate(-7.95 -4.69)"/><path class="cls-1" d="M591.36,381.11a5.75,5.75,0,0,1,1.38,3.35q0.12,1.85.38,3.81v3a13.28,13.28,0,0,0,.25,2.7,9,9,0,0,1-2,7.67,4.29,4.29,0,0,0,.25,2.46q2.25,3.55,1,8.81a21.62,21.62,0,0,0,0,8,29.74,29.74,0,0,1,.5,5.53,33.15,33.15,0,0,1-.5,5.74,13,13,0,0,0-.37,1.45,14.61,14.61,0,0,1-.37,1.45,8.94,8.94,0,0,0-.5,2.36q0,3.51.12,6.86a23.17,23.17,0,0,0,1.13,6.41,12.44,12.44,0,0,1,.5,2.9q0,2.51-.25,5.06a21.22,21.22,0,0,1-1.25,5.26,5.62,5.62,0,0,0-.25,2.06q0.25,2,.5,4a15.08,15.08,0,0,0,1,3.93,3.19,3.19,0,0,1,.25,1.45v12a4.76,4.76,0,0,1-.75,2.65,4.35,4.35,0,0,0-.5,3.61,1.69,1.69,0,0,1,.25.7,1.57,1.57,0,0,0,.25.7,13.64,13.64,0,0,1,.75,4.6q0,2.51-.12,5a36.52,36.52,0,0,0,.12,5.23,15.18,15.18,0,0,1-1.75,7.62,18.2,18.2,0,0,1-3,4.37,5.57,5.57,0,0,1-1.25.76,7.88,7.88,0,0,0-2.5,1l-2.5,1.51c-0.67.31-1.25,0.54-1.75,0.73a11.62,11.62,0,0,1-1.75.48,4.36,4.36,0,0,1-3.76-.74,7.8,7.8,0,0,1-2.25-2.8,15.64,15.64,0,0,0-1.75-2.65,8.54,8.54,0,0,1-.75-1.73c-0.17-.55-0.34-1.14-0.5-1.78v-4.51a42.19,42.19,0,0,1,.25-4.56,22.13,22.13,0,0,0,.5-4.61q0-2.25,0-4.51,0.25-12.56.25-25V448.68a3.94,3.94,0,0,0-.25-1.7,18.07,18.07,0,0,1,.13-2.28,3.24,3.24,0,0,1,1.38-2,1.4,1.4,0,0,0-.5-1.15,2.43,2.43,0,0,1-.75-1.35v-3.26q0-2.75-.12-5.11a35.66,35.66,0,0,1,.12-5.16,21.79,21.79,0,0,1,.12-2.41,22.11,22.11,0,0,0,.13-2.4,22.92,22.92,0,0,0,.5-3.86,7.2,7.2,0,0,0-.25-2.2,5.07,5.07,0,0,1-.63-1.87,16.86,16.86,0,0,1-.13-2.23q0.25-9.31,0-18.28a22,22,0,0,0-.25-4,23.16,23.16,0,0,1-.5-4.78q0-2.37.25-4.93,0.25-4.3.5-8.74t0.25-8.69a11.21,11.21,0,0,1-.25-2.33,5.66,5.66,0,0,0-.5-2.27,8.92,8.92,0,0,0-.12-1.48,8.46,8.46,0,0,1-.13-1.48,5.92,5.92,0,0,1,2-4.41,36.47,36.47,0,0,1,3.13-2.89,16.42,16.42,0,0,1,3.63-2.24,3.68,3.68,0,0,0,1.25-1.26q2.5-2,4.51-.92a1.72,1.72,0,0,0,1.12.39,1.8,1.8,0,0,1,1.13.4q5.76,1.08,6.51,7.44a5.18,5.18,0,0,1,0,2.25,13.37,13.37,0,0,0-.75,4.41,16.14,16.14,0,0,0,.5,4.15,27.82,27.82,0,0,1,.5,5.16,31.07,31.07,0,0,1-.5,5.36c-0.17,1.37-.34,2.74-0.5,4.11S591.69,379.54,591.36,381.11Zm-14.52,12c0.33,0.27.54,0.31,0.63,0.13a0.52,0.52,0,0,1,.38-0.33,2.55,2.55,0,0,0,1.25,0,4.88,4.88,0,0,0,1.75-.61c0.17,0,.25-0.21.25-0.55a2.07,2.07,0,0,0-1,.58,0.69,0.69,0,0,1-1,.08,0.91,0.91,0,0,0,.25-0.43,0.91,0.91,0,0,1,.25-0.43,1.84,1.84,0,0,1-1.25,0,5,5,0,0,1-.75.78A4.88,4.88,0,0,0,576.84,393.08Zm2.75,11.21c-0.34.74-.5,1-0.5,0.85a0.84,0.84,0,0,0,1,.8,1.45,1.45,0,0,1,1.25.25c0.16,0.64,0,1-.37,1a0.51,0.51,0,0,0-.63.5,1.07,1.07,0,0,1,.63.37,1,1,0,0,0,.63.37,2.1,2.1,0,0,1,1,0,2.28,2.28,0,0,0-.5-0.65,0.56,0.56,0,0,1-.25-0.45v-1.25a1.16,1.16,0,0,0-1.25-.75C580.09,405.44,579.75,405.09,579.59,404.29Zm3.25,91.48a6.69,6.69,0,0,1,.88.32,0.86,0.86,0,0,0,.88-0.18,0.79,0.79,0,0,0-.88-1,1,1,0,0,1-1.13-.65,9.6,9.6,0,0,0-1.5,1.56,3.46,3.46,0,0,1,1.5.2Zm0-10.27a11.56,11.56,0,0,0-.5,1.35,12.35,12.35,0,0,1-.5,1.35c-0.34.74-.25,1.22,0.25,1.45a5.19,5.19,0,0,0,1-1,5.49,5.49,0,0,0,1.5-.56,2.09,2.09,0,0,1-.75-0.35,2.48,2.48,0,0,0-.75-0.35c0.17,0,.25-0.09.25-0.17s0.08-.14.25-0.18l0.25-.05A13.39,13.39,0,0,0,582.84,485.5Zm1-95.6-0.5-1.65c-0.34-.27-0.42-0.5-0.25-0.7a0.63,0.63,0,0,0,0-.75l-1-.29v1a1.13,1.13,0,0,1-.12.65,0.61,0.61,0,0,0-.12.4A11.59,11.59,0,0,1,583.85,389.9Z" transform="translate(-7.95 -4.69)"/><path class="cls-1" d="M641.93,457.94a3.9,3.9,0,0,1-.37-0.93,1.73,1.73,0,0,0-.63-0.88,5.23,5.23,0,0,1-2.13-3.95,15.4,15.4,0,0,1,.63-5q0.5-1.36.88-2.31c0.25-.63.54-1.4,0.88-2.31,0.16-.53.33-1,0.5-1.48s0.33-.86.5-1.23a1.59,1.59,0,0,1-.25-0.7,0.58,0.58,0,0,0-.25-0.45,4.76,4.76,0,0,1-1.63-3.05,12,12,0,0,1,.37-3.71,24.87,24.87,0,0,0,.75-3,23.37,23.37,0,0,1,.75-3v-0.75a0.85,0.85,0,0,0-.25-0.7,9.11,9.11,0,0,1-1.88-5,39.16,39.16,0,0,1,.12-5.41,22.94,22.94,0,0,0,1-8q-0.25-3.7-.75-7.36a4.66,4.66,0,0,1-.25-1.58q0-.87,0-1.63a15,15,0,0,1-.12-3.35,7.73,7.73,0,0,1,1.13-3.36,7.51,7.51,0,0,0,.63-2,7.27,7.27,0,0,1,.63-2c-0.34-1.26-.63-2.46-0.88-3.58s-0.54-2.31-.88-3.58a8.87,8.87,0,0,1-.5-3q0-1.63,0-3.63,0-1.25,0-2.63a12.77,12.77,0,0,0-.25-2.58,7.92,7.92,0,0,0-.5-2.65,3.71,3.71,0,0,0-3.76-3,9.89,9.89,0,0,0-4.76,0,19.89,19.89,0,0,1-6.51.07,8.64,8.64,0,0,0-2.5-.11,8.18,8.18,0,0,1-2.5-.12c-0.5-.4-1-0.84-1.5-1.32s-1.09-1-1.75-1.52a7.2,7.2,0,0,0-.5-1.9q-2.25-5.79,1.25-12.27a18.56,18.56,0,0,1,1.13-2.1,13.13,13.13,0,0,0,1.13-2.36,7.85,7.85,0,0,1,4.76-3.72l0.75-.15,10-2a8.89,8.89,0,0,1,2.5-.26,9.53,9.53,0,0,0,5.76-.42,14.77,14.77,0,0,1,2.63-.28,12.29,12.29,0,0,1,2.63.22,24,24,0,0,0,2.5-1.51q4-2.81,7.51-1.77a10,10,0,0,0,8.26-1.42,8.86,8.86,0,0,1,4.51-1.91,41.48,41.48,0,0,1,4.51-.16c1.16,0.1,2.34.15,3.51,0.17l4.26,0c-0.34.07,0,.17,1,0.3a5.2,5.2,0,0,0,1.5.95,4.46,4.46,0,0,1,1,1.8,6.37,6.37,0,0,1,1.88,3.51,13.7,13.7,0,0,1,.12,4.11v2.25a5.6,5.6,0,0,1-1.5,3.56,9,9,0,0,1-2.25,3,9.64,9.64,0,0,1-4.76,3.21,15.65,15.65,0,0,0-3.76,1.25q-1.76.86-3.76,1.76a7,7,0,0,1-2.13.93,7.05,7.05,0,0,0-2.13.93,26.09,26.09,0,0,0-6.26,10V496.44a25.54,25.54,0,0,1-.25,3.68,31.93,31.93,0,0,1-.75,3.53,8.87,8.87,0,0,1-3.76,5q-6.51,4.33-12.52,1.54-3.26-1.34-3.25-5.35c0-1.17,0-2.26.12-3.28s0.21-2,.37-3.08a22,22,0,0,0-.25-4,20.32,20.32,0,0,1-.63-4c-0.09-1.4-.12-2.77-0.12-4.11s0-2.66-.13-4-0.12-2.64-.12-4a19.84,19.84,0,0,1-.5-3.9,21.55,21.55,0,0,1,0-8c0.33-1.4.63-2.76,0.88-4.06S641.6,459.68,641.93,457.94Zm1-110.37v-0.25l-0.75.15a1.23,1.23,0,0,0-.25.8,0.55,0.55,0,0,1,.25.32,0.51,0.51,0,0,0,.25.32l0.5-.6v-0.75Zm1.75,7.15a1.56,1.56,0,0,1-.75,0,1,1,0,0,0-.5,0,0.56,0.56,0,0,0-.38.45,0.5,0.5,0,0,0,.13.6l0.5,0.15a1.13,1.13,0,0,0,.5-0.48A2.41,2.41,0,0,1,644.69,354.72Zm2.5-11.52a11.17,11.17,0,0,0-.5,1.35,12.36,12.36,0,0,1-.5,1.35,1.86,1.86,0,0,0,1,.8,3.27,3.27,0,0,0,1-.7l-0.5-1.4c-0.17-.46-0.34-0.93-0.5-1.4a1,1,0,0,1,.75-1.15,4.48,4.48,0,0,1,1,1.3,0.92,0.92,0,0,1,.37-0.33,0.93,0.93,0,0,0,.38-0.33,2,2,0,0,0-.25-2.2l-1-.8a4.34,4.34,0,0,1-1.13,1,2.16,2.16,0,0,0-.88,1.43A0.92,0.92,0,0,0,647.19,343.2Zm4.51,26.63c-0.84.51-1.09,1-.75,1.4,0.33,0.27.92,0.07,1.75-.6a1,1,0,0,0-.5-0.53A1.4,1.4,0,0,1,651.7,369.82Zm1.5,101.85q-0.5-1.4-1.5-1.2a0.84,0.84,0,0,0-.75.9c-0.17.37,0,.67,0.5,0.9a1.18,1.18,0,0,0,1.25,0Zm0.5-60.95-1.38.28a2.36,2.36,0,0,0-.63.63v0.75a0.33,0.33,0,0,0,.37.3,0.64,0.64,0,0,0,.63-0.5A7.1,7.1,0,0,1,653.7,410.73ZM654,343.32q0-.25,0-0.5l-0.75.15a0.89,0.89,0,0,0-.25.55l-0.25.3a0.89,0.89,0,0,0,.75.1Zm2.25,5.55a6.31,6.31,0,0,0-.5-2.9,7,7,0,0,0-.75,1.65A3.7,3.7,0,0,0,656.2,348.88Zm5-5.27c-0.17-.3-0.67-0.36-1.5-0.19a3.65,3.65,0,0,0-1.25,1.25c0,0.5.42,0.5,1.25,0A1.75,1.75,0,0,0,661.21,343.61Z" transform="translate(-7.95 -4.69)"/><path class="cls-1" d="M729.31,455.19a6.1,6.1,0,0,1,1.75,4.92v0.75a15.43,15.43,0,0,0,1.88,3.39,7,7,0,0,0,3.38,2.34q3.76,1.27,9-.5a5.57,5.57,0,0,1,1.5-.54,3.29,3.29,0,0,0,1.5-.79q4-2.78,4.26-6.58a7.15,7.15,0,0,1,.75-2.9,36,36,0,0,0,2-5.52c0.5-1.85.91-3.72,1.25-5.62,0-.5,0-1,0-1.5a2.28,2.28,0,0,0-.5-1.41,0.84,0.84,0,0,1-.25-0.7,3.63,3.63,0,0,1,1.38-1.64,4.1,4.1,0,0,0,1.38-1.39l14.27-2.72,1.5,0.72,1.5,0.72a2.07,2.07,0,0,1,1.5,2.22v13q-0.25,1.8-.37,3.45a19.11,19.11,0,0,1-.63,3.5,12,12,0,0,1-2.76,6l-0.5,1.09-0.5,1.1a30,30,0,0,1-3.26,6.5,67.73,67.73,0,0,1-4.51,6q-1,1.19-2,2.26t-2,2.26A32.46,32.46,0,0,1,747.09,492a31.09,31.09,0,0,1-10.27,1.75,29.58,29.58,0,0,1-5.76-.38,18.17,18.17,0,0,1-5.26-1.72q-2-1.1-3.5-1.81-2-1.11-3.76-2.26A25.54,25.54,0,0,1,715,484.8a18.8,18.8,0,0,1-5.76-10.88,20.44,20.44,0,0,1-.63-4.13c-0.09-1.49-.13-2.89-0.13-4.23q0.25-4.3.13-8.66t0.12-8.66q0-4.25-.25-8.09t-0.75-7.74a23.32,23.32,0,0,1-.25-3.45q0-1.75,0-3.5V413.68a72.94,72.94,0,0,0-.75-10.62,11.16,11.16,0,0,1-.37-3.68q0.12-1.77.37-3.83c0.17-1.2.29-2.31,0.38-3.33s0.12-2.11.12-3.28a23.39,23.39,0,0,0-.5-6.66,9,9,0,0,0-.12-1.48,8.51,8.51,0,0,1-.13-1.48q0.25-3.8.75-7.66t1-8a21.65,21.65,0,0,0-.25-7.46,32,32,0,0,1,.5-11.37,28.23,28.23,0,0,1,6.26-14c0.83-1,1.59-1.94,2.25-2.83s1.42-1.82,2.25-2.82a65.23,65.23,0,0,1,6.64-6.07,42.37,42.37,0,0,1,7.64-4.75,32.4,32.4,0,0,1,3.38-1.41l3.38-1.16a7.64,7.64,0,0,0,1.38-.39,6.29,6.29,0,0,1,1.13-.35,43.49,43.49,0,0,1,8.26-.35,18.36,18.36,0,0,1,7.51,2.06,7.66,7.66,0,0,1,.88.33,5,5,0,0,1,.88.58,1.68,1.68,0,0,0,1.5.47q3,0.18,3.25,2.88a4.57,4.57,0,0,0,1.25,2.26l0.5,0.41a4.73,4.73,0,0,0,1.38,1.87l1.63,1.32a20.85,20.85,0,0,1,7.26,14.15q0.24,2.71.25,5.46t0,5.51a15,15,0,0,1-.5,3.1,10.55,10.55,0,0,1-2.5,4.48,26.6,26.6,0,0,0-2.38,1.58,26.1,26.1,0,0,1-2.38,1.58,2.33,2.33,0,0,1-1.25.49l-6.26,1.19q-5,1-5.51-4a4,4,0,0,0-.25-1.7,22.28,22.28,0,0,1-1.75-9.17,3.75,3.75,0,0,0-1.25-3.77,10.11,10.11,0,0,0-5.51-3.7,4.22,4.22,0,0,0-1.25-.13,3.89,3.89,0,0,1-1.25-.13,1.81,1.81,0,0,1-1.25,0,3.69,3.69,0,0,0-1.75-.16,10.66,10.66,0,0,1-2,.14,9.42,9.42,0,0,0-5.26,3.53,1.79,1.79,0,0,0-.5,1.1,27.89,27.89,0,0,1-3.76,6.75,10,10,0,0,0-1.38,4.15c-0.09,1.27-.13,2.57-0.13,3.9a1.21,1.21,0,0,0-.12.9,2.63,2.63,0,0,1,.12.86v64.85q0,1.26-.12,2.78c-0.09,1-.12,1.95-0.12,2.78,0,1.34,0,2.71.12,4.11s0.21,2.75.38,4.06a25.37,25.37,0,0,0,.25,3.7,25.8,25.8,0,0,1,.25,3.71q0,2-.12,3.9t-0.38,4a6.38,6.38,0,0,1-.12,1.15A6.06,6.06,0,0,0,729.31,455.19Zm-11.52-20.52a2.34,2.34,0,0,0,.25-0.93,2.32,2.32,0,0,1,.25-0.93l-0.25,0a2.64,2.64,0,0,0-.37.58,1.78,1.78,0,0,1-.63.63l-1-.8a5,5,0,0,1,.75-1.15A1.42,1.42,0,0,0,715,433a1.67,1.67,0,0,1,.25.7,1.57,1.57,0,0,0,.25.7,0.62,0.62,0,0,1,1,.43C716.71,435.35,717.13,435.31,717.79,434.68Zm0-82.63a3,3,0,0,0-1,.32l-1.25.88c0.83-.33,1.29-0.3,1.38.1a1.66,1.66,0,0,0,.63,1,0.88,0.88,0,0,0,1.25-.75,4.81,4.81,0,0,0-1.5-1.2c0.16,0,.25-0.09.25-0.18S717.63,352.08,717.79,352ZM718,403.83a2.39,2.39,0,0,0,.75-0.4l1,0.3a0.59,0.59,0,0,1,.12-0.4,1.12,1.12,0,0,0,.13-0.65l1-.7a6.21,6.21,0,0,1,0-2.5,24,24,0,0,1-2.5,1.49q0,0.25,0,.5l0.75-.15,0.75-.15a1.51,1.51,0,0,1-1,1.45,1.3,1.3,0,0,0-1.5.3v1.5a1.27,1.27,0,0,0-1.25,1.25,4.18,4.18,0,0,0,1.13.65,4.55,4.55,0,0,1,1.13.65,7.15,7.15,0,0,0,1-1.45,2.67,2.67,0,0,0-1.25,0,1.46,1.46,0,0,1-1.25-.25l0.5-1.1A0.92,0.92,0,0,1,718,403.83Zm1,51.63a1.11,1.11,0,0,1,1-1.2,0.91,0.91,0,0,1,.37-0.33,0.92,0.92,0,0,0,.38-0.32c0.16,0,.25,0,0.25.07s0.08,0.11.25,0.08l0.25,0a4.75,4.75,0,0,0,.63-0.87,2.62,2.62,0,0,1,.38-0.58,1.12,1.12,0,0,0-.75-0.35,2.44,2.44,0,0,1-.25-1.2l-1,.2v-2.25a5.77,5.77,0,0,1-.88-0.33,0.79,0.79,0,0,0-.88.43,13.8,13.8,0,0,1,1.75.65,2.33,2.33,0,0,1-.75.4,2.42,2.42,0,0,0-.75.4,2.55,2.55,0,0,1-.25,1.05,2.69,2.69,0,0,0-1.5,2.55,1.62,1.62,0,0,1,.13,1.1c-0.09.44,0.21,0.75,0.88,1a5,5,0,0,0-.75,1.15,4.62,4.62,0,0,1,.75,1.1,1.24,1.24,0,0,1,.75-0.4,0.6,0.6,0,0,1,.25.45,1.61,1.61,0,0,0,.25.7l1-1.2A1.91,1.91,0,0,1,719,455.46Zm0.25-40.11a17.47,17.47,0,0,0-.88,1.68,6.29,6.29,0,0,1-.88,1.42v1l0.5,1.4a10.41,10.41,0,0,1,1.38-3.15,11.33,11.33,0,0,0,1.38-2.9,3.24,3.24,0,0,0-.88.3A2.34,2.34,0,0,1,719.3,415.35Zm-1-27.34a4.73,4.73,0,0,0,.63-0.88,4.83,4.83,0,0,1,.63-0.87l0.75-.9,0.75-.9a4.38,4.38,0,0,1-1.25-.5,21.5,21.5,0,0,1-1,2l-1,1.7Zm2.5,19.78a1.88,1.88,0,0,1-1.13.35,1.39,1.39,0,0,0-1.13.85,12.07,12.07,0,0,0,1,1.55L718.3,412l0.75,0.6a7.9,7.9,0,0,0,.75-1,6.23,6.23,0,0,0,.5-1.22,2.36,2.36,0,0,0-.5-0.65,2,2,0,0,1-.5-0.65c0.16-.53.42-0.75,0.75-0.65S720.63,408.33,720.8,407.79Zm2.5,63.35a3.85,3.85,0,0,0,0,2.75c-0.84.67-1,1.2-.5,1.6a1.09,1.09,0,0,1,1.25.25,1.31,1.31,0,0,0,1.13.28,7.09,7.09,0,0,1,1.63-.07,7.72,7.72,0,0,0-1.13-3.28,11.26,11.26,0,0,1-1.38-3,1.18,1.18,0,0,0-.63.25,1.17,1.17,0,0,1-.63.25A1.24,1.24,0,0,0,723.3,471.15Zm11.27,12.06a1.31,1.31,0,0,1-.37-1.3c0.08-.6-0.29-0.9-1.13-0.91a7,7,0,0,1,.25,1.7,4.31,4.31,0,0,0,.25,1.46,2.08,2.08,0,0,0,1.75-.84v-0.5a0.64,0.64,0,0,0-.38.2A0.62,0.62,0,0,1,734.57,483.21Zm6.76-7.58-0.5.1L740,475l-0.88-.71a7,7,0,0,1-1.25,1.25,3.07,3.07,0,0,1,1.25,1.13,1.29,1.29,0,0,0,1.75.29,2.7,2.7,0,0,0,.25-0.68,2.58,2.58,0,0,1,.25-0.67,1.16,1.16,0,0,1,.5.9,0.92,0.92,0,0,0,.13.48,1,1,0,0,1,.12.48l-0.25.55a1.06,1.06,0,0,0,.5.65,1.12,1.12,0,0,1-.12.65,1.11,1.11,0,0,0-.13.65,2.42,2.42,0,0,1,.75-0.39,2.37,2.37,0,0,0,.75-0.39,19.09,19.09,0,0,1-1-3.56,0.9,0.9,0,0,1-.63,0A1,1,0,0,0,741.33,475.63ZM740.83,327a4.8,4.8,0,0,0-.63.87,4.84,4.84,0,0,1-.63.88,1,1,0,0,1-.75.65c-0.34.07-.42,0.33-0.25,0.8a2,2,0,0,0,.75-0.27,2,2,0,0,1,.75-0.27,0.92,0.92,0,0,1,.75.1c0.17,0.13.41,0,.75-0.39Q742.08,327.51,740.83,327Zm1,157a8.66,8.66,0,0,1-.88.55,8.77,8.77,0,0,0-.88.55v0.25l3.51-.68a2.37,2.37,0,0,0-.38-0.55c-0.09-.07-0.46-0.45-1.13-1.16A1.67,1.67,0,0,0,741.83,484ZM746.09,328q-1,.45-0.63,1a0.88,0.88,0,0,1-.12,1.15q-0.75.15-1.25-1-0.5-.4-0.75.15a2,2,0,0,0,2.75,1.22,2.69,2.69,0,0,0,.38-0.57,2.63,2.63,0,0,1,.38-0.57Zm5,149a4.15,4.15,0,0,0-1-1.06,2.08,2.08,0,0,0-1.75.84v0.5l1-.19a0.57,0.57,0,0,1,.25.33,0.52,0.52,0,0,0,.25.33C750.34,478.14,750.76,477.9,751.1,477Zm13.77-16.17a4.64,4.64,0,0,1,.5-1.85,4.22,4.22,0,0,0-1.25-.76,3.92,3.92,0,0,0,.25-1.55,30.51,30.51,0,0,1-3,2.58,14.55,14.55,0,0,0,.75,1.86,9.48,9.48,0,0,1,1.5-.16,7.58,7.58,0,0,0,1.25-.12,1.52,1.52,0,0,0,.5,1.66,5.41,5.41,0,0,1,1.25-.74v-1l1.25-.24-1.25-.51a2.44,2.44,0,0,1-.88.42A2.48,2.48,0,0,0,764.87,460.83Z" transform="translate(-7.95 -4.69)"/><path class="cls-1" d="M851,414.35a2,2,0,0,1-1.38-1.39,14.59,14.59,0,0,1-.12-2.11,18,18,0,0,1,0-6,8.58,8.58,0,0,0-2.15-6.64,11.82,11.82,0,0,0-5.94-3.48,9.75,9.75,0,0,0-4.68-.56,21.82,21.82,0,0,0-4.92,1.24,11.09,11.09,0,0,0-2.91,1.52,23.72,23.72,0,0,0-2.65,2.22,22.42,22.42,0,0,0-3.16,4.7,19.73,19.73,0,0,0-1.64,4.92,7,7,0,0,0-.25,2.05,4,4,0,0,0,.25,3.21,14.84,14.84,0,0,1,.75,6.12,4.66,4.66,0,0,1-.75,2.64,6.08,6.08,0,0,0-.25,3q0.5,3.17.88,6.48a37.78,37.78,0,0,1,.12,6.86q-0.25,1.8-.37,3.57a24.39,24.39,0,0,1-.63,3.87,6.24,6.24,0,0,1-.12,1.15,1.6,1.6,0,0,0,.37,1.31,6.91,6.91,0,0,1,.25,4.21,22.44,22.44,0,0,1-.5,3.84,10.37,10.37,0,0,0,.5,4.42,11.64,11.64,0,0,1-1.75,9.58,6.11,6.11,0,0,0-.86,1.41,17.82,17.82,0,0,1-.87,1.66,9.73,9.73,0,0,1-6.67,5.71,4.67,4.67,0,0,1-1.73.57,6.18,6.18,0,0,1-6.06-.9,7.74,7.74,0,0,1-3.09-4.69,2.75,2.75,0,0,0-.25-1.08c-0.17-.39-0.34-0.82-0.5-1.29q-0.5-1.91-1-4.07a19.35,19.35,0,0,1-.5-4.41v-2.5a5.29,5.29,0,0,1,2.5-5.47l0.5-.59-0.75-.61a6.25,6.25,0,0,1-2-3.89,10.38,10.38,0,0,1-.25-2.08q0-.87,0-2.13v-4.26a49.48,49.48,0,0,1,1.25-10.5,22.47,22.47,0,0,0,.75-3.14,19.31,19.31,0,0,0,.25-3q0-13.27,0-26.54a9414.08,9414.08,0,0,0-1-7.33,104.67,104.67,0,0,1,.75-12.66,19.35,19.35,0,0,0,.25-3v-3q0-11,0-22a18.16,18.16,0,0,0-.12-2.23c-0.09-.65-0.21-1.38-0.37-2.18a13.12,13.12,0,0,1-.5-2.41q0-3.5.12-6.91a68.69,68.69,0,0,1,.63-7,3.11,3.11,0,0,0,.25-1.3q0-4.63,0-9.26a5.88,5.88,0,0,0-.75-2.87,9.57,9.57,0,0,1,0-8l1.48-3.28a13.63,13.63,0,0,1,2-3.12,12,12,0,0,1,6.18-4.13,13.25,13.25,0,0,1,3.21-.08,8.15,8.15,0,0,1,2.72,0,4.27,4.27,0,0,1,3,1.22,4.61,4.61,0,0,1,.87,1,4.46,4.46,0,0,0,.86,1A4.18,4.18,0,0,1,821,304c0.16,0.81.29,1.62,0.37,2.43a23.13,23.13,0,0,0,.37,2.44,8.38,8.38,0,0,1-.25,4.55,5.15,5.15,0,0,0-.25,3.55,26.25,26.25,0,0,1,.63,4.39,28,28,0,0,1-.13,4.53q-0.25,2.8-.37,5.45T821,336.76a6.36,6.36,0,0,0,.25,1.83,7.42,7.42,0,0,1,.25,2.08,9.62,9.62,0,0,1,.25,2.71c0,1.34,0,2.67,0,4a31.09,31.09,0,0,0,.25,4,17,17,0,0,0,.13,2.23,18.17,18.17,0,0,1,.12,2.23q0.5,2.42-1.25,3.23v2.25a7.67,7.67,0,0,0,.25,2,2.09,2.09,0,0,0,.5,1.66,4.74,4.74,0,0,1,.76,1.49,4.55,4.55,0,0,0,.76,1.49,9.3,9.3,0,0,0,2,3.14,4.92,4.92,0,0,0,3.29,1.42,2.66,2.66,0,0,0,1.26,0,29.64,29.64,0,0,0,5.3-.44l5.31-.93a13.45,13.45,0,0,0,3.79-1.66,6.82,6.82,0,0,0,3.28-4.57,22.29,22.29,0,0,1,.63-2.49c0.25-.8.55-1.64,0.88-2.53a14.91,14.91,0,0,0,.5-3.09V319.21a36.65,36.65,0,0,0-.25-4.34q-0.25-2.08-.5-4a23.77,23.77,0,0,1,1-10.94,0.59,0.59,0,0,1,.12-0.4,0.59,0.59,0,0,0,.13-0.4,6.74,6.74,0,0,0,1-1.93,2.25,2.25,0,0,0,.25-0.92,2.24,2.24,0,0,1,.25-0.92,3.7,3.7,0,0,1,2.79-1.48,12.67,12.67,0,0,0,4.82-2.08,9.71,9.71,0,0,1,4.31-1.23,8.06,8.06,0,0,1,4.06.57q1.77,0.71,2.79,3.54a7.43,7.43,0,0,0,.5,2.42,16.19,16.19,0,0,1,1,5.84v75.62a42.08,42.08,0,0,1-.37,5.57q-0.38,2.82-.88,5.66-0.25,1.3-.38,2.19a3.87,3.87,0,0,0,.38,2.06,1.75,1.75,0,0,1,.25.71,0.59,0.59,0,0,0,.25.46,29.56,29.56,0,0,1,.75,6.38v31.8a74,74,0,0,1-1.5,15,10,10,0,0,0,.25,3.72,6.29,6.29,0,0,0,.25,1.83c0.16,0.56.33,1.07,0.5,1.55q1.25,3.3,0,8.26-1.27,4.22-4.81,5.06a2.07,2.07,0,0,0-1.27.71q-5.32,2.65-9.63,1.88-5.07-.64-5.83-6a39.27,39.27,0,0,1-.25-4.46V425.87c0-1.33,0-2.72.12-4.15a23.82,23.82,0,0,1,.63-4.24,14.56,14.56,0,0,0,.38-1.44C850.7,415.61,850.83,415,851,414.35ZM810.44,336.4a3.56,3.56,0,0,0,0-2,3.33,3.33,0,0,0-1.5-.23,1.76,1.76,0,0,0-.5.84,11.18,11.18,0,0,0,.25,1.45A4.07,4.07,0,0,0,810.44,336.4Zm0.25,115.13a1,1,0,0,1-.37-1.06c0.08-.43-0.12-0.61-0.63-0.51a1.37,1.37,0,0,0-.37,1.2,1.83,1.83,0,0,1-.13,1.15,22,22,0,0,0-.75,2.14l0.25,0.2,0.5,0.41a11.13,11.13,0,0,0,.38-1.69,10.07,10.07,0,0,1,.38-1.7Zm-1.25-40.83-0.25.55a5.53,5.53,0,0,0,.63,1.26,0.88,0.88,0,0,1-.12,1.15l0.5,0.41a14.62,14.62,0,0,0,.37-1.45,12.85,12.85,0,0,1,.38-1.45A1.05,1.05,0,0,0,809.43,410.7Zm0.88-36c0.66-1.12,1.08-1.86,1.25-2.23v-1a0.18,0.18,0,0,0-.25-0.21,0.61,0.61,0,0,1-.13.4,0.59,0.59,0,0,0-.12.4,4.15,4.15,0,0,0-1.75.07v0.25a1.14,1.14,0,0,1,.75.36A2.82,2.82,0,0,0,810.32,374.73Zm1.72,25a11.79,11.79,0,0,0,1.75-1.45,11.8,11.8,0,0,1,1.75-1.44c-0.84.49-1.25,0.52-1.25,0.1a1.3,1.3,0,0,0-.5-1,1.16,1.16,0,0,0-.63.24,0.62,0.62,0,0,1-.38.19Q812.29,398.41,812,399.71Zm2.65-20.26,0.25,0.46a2.83,2.83,0,0,1-1,.8,2.86,2.86,0,0,0-1,.81,4.91,4.91,0,0,0,2.13-.89,11.41,11.41,0,0,1,1.63-1,2.94,2.94,0,0,0,1,.57l1,0.32,0.25,0v-1l-1,.18-0.75-1.37-1.75.32Zm8,7.82a0.31,0.31,0,0,1,0-.5c0.16-.19.08-0.34-0.25-0.46a20.81,20.81,0,0,1-1,1.93l-1,1.68c0.16,0.31.5,0.25,1-.18a1.73,1.73,0,0,1,1-.43,1.83,1.83,0,0,1,.25-2,2,2,0,0,1,.25.58,1.74,1.74,0,0,0,.25.58,7.38,7.38,0,0,0,1.88-.08,5.05,5.05,0,0,1,1.63,0v-1.25a9.4,9.4,0,0,1,2.25-.15,1.74,1.74,0,0,1,.5-1.09,5.39,5.39,0,0,0,1.75-.06,5.93,5.93,0,0,1,.12-1.15,6.25,6.25,0,0,0,.13-1.15,7.44,7.44,0,0,1-.88.91,2.33,2.33,0,0,1-1.13.45,1.69,1.69,0,0,0-1.5.77,0.64,0.64,0,0,1-1,.18,0.93,0.93,0,0,0-1.25.22l-0.5,1.09a3.92,3.92,0,0,0-1.25-.27,1.16,1.16,0,0,0-.63.23A1.13,1.13,0,0,1,822.7,387.27Zm20.94-9.21v0.5a2,2,0,0,0,2-.47,11.79,11.79,0,0,1,1.75-1.43c-0.17-.47-0.38-0.64-0.63-0.52a2.91,2.91,0,0,1-.88.28,2.65,2.65,0,0,0-.25.67,2.66,2.66,0,0,1-.25.67Zm8.85-.27a4.27,4.27,0,0,1,.13-1,4.46,4.46,0,0,0,.12-1,0.89,0.89,0,0,1-.75-0.12,7.4,7.4,0,0,1-.75,1.38,5.29,5.29,0,0,1,.75,1.37,1.79,1.79,0,0,0,1.25,1,0.88,0.88,0,0,1,.5-0.34,0.9,0.9,0,0,0,.5-0.33,2,2,0,0,0-.88-0.48A2,2,0,0,1,852.5,377.79Zm7.41,21.27a0.86,0.86,0,0,1-.25-0.71,5.56,5.56,0,0,1-1.13.06,5.89,5.89,0,0,0-1.13.07,2.58,2.58,0,0,0,.25-0.67,2.6,2.6,0,0,1,.25-0.67,7.49,7.49,0,0,1-2.25.14q-0.75,1.38.25,1.21c0.5-.09.79,0,0.88,0.23a0.88,0.88,0,0,0,.63.52,7.51,7.51,0,0,0,1.38-.36,1.09,1.09,0,0,1,1.13.18,3,3,0,0,1-.12.9,0.76,0.76,0,0,0,.38.81q0.5-.33,1.13-0.69c0.41-.23.79-0.46,1.13-0.69v-2.5l-0.5-.92a17,17,0,0,0-.88,1.65A4.07,4.07,0,0,1,859.91,399.06Zm0-10.76-4.51.77a3.42,3.42,0,0,1,1.25,1,7,7,0,0,0,1.63-.4A10.26,10.26,0,0,0,859.88,388.29Zm-3.37,17.35c0.83-.48,1.37-0.78,1.63-0.9a4.69,4.69,0,0,0,1.13-1.07,2.07,2.07,0,0,1-.63-0.27,2.52,2.52,0,0,0-.63-0.27v1.5a2,2,0,0,0-.88-0.47,1.9,1.9,0,0,1-.88-0.48A1.32,1.32,0,0,0,856.51,405.65Zm3.76-50.21a0.92,0.92,0,0,1,.75.12l0.75-1.63a1.39,1.39,0,0,0-1.75.8,2,2,0,0,1-1.5,1.26l-0.5.59v0.25a4.42,4.42,0,0,0,1-.29,4.45,4.45,0,0,1,1-.3,0.59,0.59,0,0,1,.12-0.4A0.58,0.58,0,0,0,860.26,355.43ZM860,334.69a4.08,4.08,0,0,0,1,.21,4.66,4.66,0,0,1,1,.21,3.52,3.52,0,0,1,0-1.87,2.42,2.42,0,0,0-.25-1.84,2.27,2.27,0,0,0-1.13,1.44A7.58,7.58,0,0,1,860,334.69Zm1,55.42c-0.34-.61-0.67-0.8-1-0.58a0.62,0.62,0,0,1,.25.46,0.58,0.58,0,0,0,.25.46l0.5-.59v0.25Zm1.25-20.24c0-.67,0-1.29,0-1.88a1.7,1.7,0,0,0-1-1.46l-0.75.88a7.5,7.5,0,0,1-.13,1.4,5.94,5.94,0,0,0-.12,1.15A1.67,1.67,0,0,0,862.26,369.87Z" transform="translate(-7.95 -4.69)"/><path class="cls-1" d="M895.81,377.38c-0.17-.8-0.34-1.61-0.5-2.42a12.84,12.84,0,0,0-.75-2.38,14.94,14.94,0,0,1-.5-3.8q0-1.88,0-3.88c0-1.67,0-3.26.13-4.78a30.88,30.88,0,0,0-.13-4.74,27.28,27.28,0,0,1,.25-3.79c0.16-1.19.33-2.47,0.5-3.84a57.09,57.09,0,0,0,0-7.51q-0.25-2.71-.37-5.58c-0.09-1.9-.13-3.77-0.13-5.61q-0.25-4.47-.12-9t0.12-9.28a29.29,29.29,0,0,1-.25-3.72q0-1.75,0-3.75a12.34,12.34,0,0,1,.5-4.09,7.06,7.06,0,0,0,1.25-3,20.76,20.76,0,0,0,.25-3.3c0-.5,0-1,0-1.63a8.25,8.25,0,0,1,.25-1.92A8,8,0,0,1,898.7,285a9.71,9.71,0,0,1,4.38-2.44l1-.16q22.91-3.58,45.82-6.8a11.66,11.66,0,0,1,6,.42q5,1.07,5.51,6.51a14.81,14.81,0,0,1-.5,7.58,10.5,10.5,0,0,1-8,7.61A38.53,38.53,0,0,1,949,299l-3.88,1a33,33,0,0,1-11.52,1.16,1.31,1.31,0,0,1-1-.11q-4-.66-7.76,3.15a24.11,24.11,0,0,1-4.25,3.89,7.73,7.73,0,0,0-3.51,6.54q0,0.88,0,1.75v14.4q0,7.13-.25,14.44a10.33,10.33,0,0,0,2.88,7.32,11.91,11.91,0,0,0,6.64,3.77,3.34,3.34,0,0,0,1.5,0l4-.59a17.76,17.76,0,0,0,4-1.09q1.25-.43,2.25-0.82a6.51,6.51,0,0,0,1.75-1,4.64,4.64,0,0,1,2.25-.82,10.31,10.31,0,0,1,5.26,1.76,15,15,0,0,0,2.5.9,12.07,12.07,0,0,0,2.75.37l0.5,0.43a14.35,14.35,0,0,0,1.38,3.19,9.2,9.2,0,0,1,1.13,3.47,17.45,17.45,0,0,0,.12,2.24,7.41,7.41,0,0,1-.12,2.27,8.93,8.93,0,0,1-1,2.89,15,15,0,0,1-2.25,3.57,11.45,11.45,0,0,1-1.75,2.75,7.11,7.11,0,0,1-4.51,2.39q-8.64,1.22-17.28,2.5a17.14,17.14,0,0,0-6.76,2.76,7.53,7.53,0,0,0-3.51,5,37.15,37.15,0,0,0-.75,4,39.34,39.34,0,0,1-.75,4,9.28,9.28,0,0,0-.12,2.65c0.08,0.91.12,1.78,0.12,2.61q0,9.52,0,19a26.54,26.54,0,0,0,.75,6.65,8.72,8.72,0,0,0,4.88,6.15,12.78,12.78,0,0,0,7.89.71,14.92,14.92,0,0,0,3-.94,9.56,9.56,0,0,1,3.38-1.24,19.29,19.29,0,0,1,3.13-.2,1.08,1.08,0,0,1,.5.05,1.62,1.62,0,0,0,.75,0,15.6,15.6,0,0,1,4.38-.5q2.12,0.08,4.13.29a7.83,7.83,0,0,1,2,.22,7.3,7.3,0,0,0,3.5.27,4.06,4.06,0,0,1,4,2.45q0.5,1.94,1,3.62c0.33,1.12.67,2.33,1,3.62a11.47,11.47,0,0,1,0,4.76,8.8,8.8,0,0,1-2.5,5.23,9.77,9.77,0,0,1-5,3.06L948,456.43q-2.88.66-5.63,1.55-2.51.61-5,1t-5.26,1l-4.13.61a34.87,34.87,0,0,0-4.13.87q-4.51.92-9,1.48t-9.26,1.55a16.3,16.3,0,0,1-6.76-.69,8.09,8.09,0,0,1-3.76-4.16,11.75,11.75,0,0,1-.75-2.51,7,7,0,0,1,0-2.63V426.7a7.76,7.76,0,0,0-.12-1.24,8.24,8.24,0,0,1-.13-1.48,4.59,4.59,0,0,1,.25-1.79,12.28,12.28,0,0,0,.25-6.55,18,18,0,0,1-.25-3.09q0-1.63,0-3.13V391.89a15.36,15.36,0,0,1,.25-3.3,14,14,0,0,0,.25-3,14.19,14.19,0,0,0,.25-2.67,13.88,13.88,0,0,1,.25-2.67,7.24,7.24,0,0,1,.12-1.4A12.9,12.9,0,0,1,895.81,377.38Zm8.76,53.2a0.6,0.6,0,0,0,.38-0.18,0.58,0.58,0,0,1,.38-0.18,2,2,0,0,1-.25-1,2,2,0,0,0-.25-1,1.25,1.25,0,0,0-1-.34,3.43,3.43,0,0,0-1.63,1.63,12.37,12.37,0,0,1-.88,1.77,0.62,0.62,0,0,1,.25.46,0.6,0.6,0,0,0,.25.46,4.64,4.64,0,0,0,.63-1.6,2.64,2.64,0,0,1,.63-1.35A1.45,1.45,0,0,1,904.58,430.58Zm2.25-54.68a2.62,2.62,0,0,0-1.75-.73l-1.5,1.74a4.13,4.13,0,0,0,1,.22,4.74,4.74,0,0,1,1,.22C906.24,377.41,906.66,376.93,906.83,375.9ZM906.08,394a6.16,6.16,0,0,1,.25,2,5.17,5.17,0,0,1,1.25-1.7,2.64,2.64,0,0,1-.63-0.65,1.84,1.84,0,0,0-.38-0.44,1.45,1.45,0,0,1-1-.22,1.09,1.09,0,0,0-1.25.32,15.94,15.94,0,0,0,1,2.35l0.38-.81Zm1.5-40.55a17,17,0,0,0-3,.72c0.67,0.06,1.5.19,2.5,0.36a3.5,3.5,0,0,0-.63.48,3.65,3.65,0,0,1-.63.47,18.45,18.45,0,0,0,1.25,1.81A22.12,22.12,0,0,1,907.58,353.5Zm2.25-45.92-0.5-.42a4.15,4.15,0,0,1-1.13.92,1.4,1.4,0,0,0-.63,1.35l-0.75.87a7.22,7.22,0,0,1-1,1.66,5.13,5.13,0,0,1,.75.76l0.75,1q-0.5-3.17,1.5-3.74l0.75,0.63a0.7,0.7,0,0,0,.63-0.47,7.57,7.57,0,0,1,.37-0.93q0-.25,0-0.5a2.62,2.62,0,0,1-.88,0,2.74,2.74,0,0,0-.88,0Zm0.5,63.27a4.81,4.81,0,0,0,.75-1.12l-0.5-.93-0.5-.92q0.24-.79.75-0.62a0.91,0.91,0,0,0,1-.41,19.53,19.53,0,0,0,.38-2.06,2,2,0,0,0-1.13-1.83c-0.17.69-.34,1.31-0.5,1.83s-0.34,1.14-.5,1.83a1.94,1.94,0,0,0-1.75,1.77,8.77,8.77,0,0,1-.5,2.33,2.63,2.63,0,0,1-1.25.94q-0.75.37-.5,1.83a1.7,1.7,0,0,1,.5-0.7,1.68,1.68,0,0,0,.5-0.71,1.5,1.5,0,0,1,1.5-.35,3.12,3.12,0,0,0,1.5.14A1.65,1.65,0,0,0,910.34,370.85Zm-3-38.34q0-.13,0-0.25a1.28,1.28,0,0,0-.5.2,1.91,1.91,0,0,1-.75.24,3.94,3.94,0,0,0,.5,1.92,2.1,2.1,0,0,0,1.75.48,20.48,20.48,0,0,0-1.5-2.27A0.88,0.88,0,0,0,907.33,332.51Zm1-29.7a6.76,6.76,0,0,1-1.25,1.2,2.19,2.19,0,0,1,1.5,1.77l-0.75.87,0.5,0.42a2.3,2.3,0,0,1,.75-0.36,0.87,0.87,0,0,0,.5-0.33,3.31,3.31,0,0,1,1,.6,7.23,7.23,0,0,0,1-1.66,3.14,3.14,0,0,0-1.5.1,1,1,0,0,1-1.25-.68l0.5-.58a0.5,0.5,0,0,1,.75,0c0.16,0.23.41,0.15,0.75-.24a1.25,1.25,0,0,0-1.25-.56A1.24,1.24,0,0,1,908.33,302.81Zm0.75,143.35-1-1.35a3,3,0,0,0-.25,2,1.64,1.64,0,0,0,1.25,1.31,3.09,3.09,0,0,1-.25,1.29,3.85,3.85,0,0,0,1.5-1l-0.5-.42,0.25-.54Zm2-146.53-0.25-.21a7.86,7.86,0,0,0-.25-2l-0.5,1.58a3.48,3.48,0,0,0-1.5-.27,3.06,3.06,0,0,1-.25,1.29c0.5,0.09,1,.19,1.38.29a2,2,0,0,0,1.38-.21,0.19,0.19,0,0,1,.25.21,0.32,0.32,0,0,1,0,.5c-0.17.19,0,.34,0.5,0.42a1.65,1.65,0,0,1,.75-1.12,1,1,0,0,1,.63-0.34,1.66,1.66,0,0,0,.88-0.64,2.61,2.61,0,0,1-.88,0,2,2,0,0,0-.63,0,4.27,4.27,0,0,0-1-1.1,2.18,2.18,0,0,0-.25.79A2.22,2.22,0,0,1,911.09,299.63Zm-1.5,136.94a2.59,2.59,0,0,1,.75.39,2.25,2.25,0,0,0,.75.39,2.92,2.92,0,0,0,.37-1.68,4.44,4.44,0,0,0-1.13-1.71,0.53,0.53,0,0,1-.5.58,2.09,2.09,0,0,0,.37.57,2.5,2.5,0,0,1,.37.57A4.85,4.85,0,0,1,909.59,436.57Zm3-59.55a3.3,3.3,0,0,1,.75.89l0.5,0.93a0.88,0.88,0,0,1,.5-0.33l0.75-.11a3.19,3.19,0,0,1-.25-1.46,1.77,1.77,0,0,0-.75-1.14,4.54,4.54,0,0,1-.75-1.14l-1,1.16-0.75.12q0,0.5,0,1A2,2,0,0,0,912.59,377Zm4.76-.47a2.41,2.41,0,0,0,1.25-.06c0.16-.11.67-0.48,1.5-1.1a2.75,2.75,0,0,1-.63-0.66,1.17,1.17,0,0,0-.63-0.41A1.89,1.89,0,0,1,917.6,373l-0.5-.93a20.69,20.69,0,0,1-1.75,1.27q-0.5,1.33.5,1.68a7.08,7.08,0,0,1,.75-1.37l0.25,0a1.06,1.06,0,0,0,.5.55,1.13,1.13,0,0,1,.5.55C918.35,375.31,918.18,375.91,917.35,376.54Zm3.26-87.38a4.47,4.47,0,0,0-1.25-.81l-1.25.19a0.86,0.86,0,0,1-.5.33,4.56,4.56,0,0,0,1,1.35,2.58,2.58,0,0,1,1-.4A1.73,1.73,0,0,0,920.6,289.16Zm-2.75,5.42a3.86,3.86,0,0,1,.5,1.18,3.31,3.31,0,0,1,.25,1.47l3-1.21q0.75-1.36,0-2a3.13,3.13,0,0,1-2.5,1.88,5.65,5.65,0,0,1-.37-0.82A1,1,0,0,0,917.85,294.59Zm3,147.52a18.85,18.85,0,0,1-1.5,2.23,4.56,4.56,0,0,0,.75,1.14,17.5,17.5,0,0,0-1,3.15,0.62,0.62,0,0,1-.63.22c-0.25,0-.46.28-0.63,1a2.22,2.22,0,0,1,1.63-.5,2.87,2.87,0,0,1,1.13.58l0.5-.08a2.21,2.21,0,0,0,.25-0.79,0.86,0.86,0,0,1,.25-0.54,0.61,0.61,0,0,0-.37-0.19,0.56,0.56,0,0,1-.38-0.19,11.62,11.62,0,0,1,.13-1.65,12.17,12.17,0,0,0,.12-1.64l-0.75-.64c0.83-1.29,1-2.32.5-3.08a1.12,1.12,0,0,0-1.5.73,0.9,0.9,0,0,1,.25.71A3.13,3.13,0,0,0,920.85,442.11Zm10.77,3.41a4.23,4.23,0,0,1-1-1.1l0.5-.57a9.11,9.11,0,0,1-.75-1.14,10.67,10.67,0,0,0-.75-1.14,1.5,1.5,0,0,0-1.25.69,2.16,2.16,0,0,0-.25,1.29,0.94,0.94,0,0,1,.63,0,0.9,0.9,0,0,0,.63,0Q929.37,445.1,931.62,445.52Zm3.26-76.84a2.91,2.91,0,0,0,.5-1.45,1.1,1.1,0,0,1,.75-1V364l-1.25.18-0.5,1.07q-0.75,2.37-2.75,2.16l-0.5.57a2.27,2.27,0,0,1,1.25.82,4.66,4.66,0,0,1,1.75-.76,0.58,0.58,0,0,1-.12.39,1.07,1.07,0,0,0-.13.65A1.67,1.67,0,0,1,934.88,368.68Zm4.76-78.06a8.81,8.81,0,0,0-1.5,1.47,2.63,2.63,0,0,1,.88,0,1.88,1.88,0,0,0,.63,0,8.21,8.21,0,0,1,2.25-2.83l0.75,0.64a0.26,0.26,0,0,1,.25-0.28,1.47,1.47,0,0,1-.5-1.18,2.47,2.47,0,0,0-2,.16,13.23,13.23,0,0,1-1.5.84,2.1,2.1,0,0,0,.38.57A2.55,2.55,0,0,1,939.63,290.62Z" transform="translate(-7.95 -4.69)"/><path class="cls-1" d="M1216.05,304.32a25,25,0,0,1-.5,5.13q-0.5,2.38-1,4.88a64.28,64.28,0,0,1-4.13,12.28q-2.63,5.77-5.63,11.55a43.73,43.73,0,0,1-5.26,7.31,2.5,2.5,0,0,0-.63.88,2.5,2.5,0,0,1-.63.88,43,43,0,0,1-11.52,10.2q-1.75,1.29-3.38,2.32l-3.63,2.34a23.26,23.26,0,0,1-7.26,3.69q-3.25,1.09-6.38,2.32a35.59,35.59,0,0,1-6.39,1.85,51.21,51.21,0,0,1-9.26,2,76.42,76.42,0,0,1-9.52.55,80.24,80.24,0,0,1-9.89-1.13q-4.88-.86-9.89-2.07a19.86,19.86,0,0,1-8.51-4.23,16.38,16.38,0,0,0-2.75-2.08l-3-1.81a22.11,22.11,0,0,1-4.76-3.55,44.31,44.31,0,0,1-4-4.6,48.81,48.81,0,0,1-4.38-6.94q-1.88-3.61-3.63-7.24a40.49,40.49,0,0,1-2.75-7.43,21.63,21.63,0,0,1-.5-8.1q0-2.25-.12-4.5t-0.13-4.5a75.49,75.49,0,0,1,1-8.84,43.72,43.72,0,0,1,2.5-8.71,18.78,18.78,0,0,0,1-1.83c1-1.58,1.92-3.15,2.76-4.71l2.5-4.69a16.26,16.26,0,0,1,2.38-3.3c0.91-1,1.88-1.92,2.88-2.83l6-4.92a19.74,19.74,0,0,1,2.63-1.93,25.75,25.75,0,0,1,2.63-1.42A28,28,0,0,1,1119,269c2.09-.46,4.21-0.91,6.39-1.38a27.85,27.85,0,0,1,8.39-.21,64.36,64.36,0,0,1,8.14,1.6,8.08,8.08,0,0,1,3,1.37,29,29,0,0,1,2.5,2.14,10,10,0,0,1,2.25,8.79,10.44,10.44,0,0,1-5.51,7.38,12,12,0,0,1-7.51.86,25.18,25.18,0,0,0-8.26-.57,20.23,20.23,0,0,0-11.52,4.68,7.57,7.57,0,0,0-2,1.88q-0.75,1-1.5,2.35a35.38,35.38,0,0,0-2.88,5.82,51.64,51.64,0,0,0-1.88,6,6.64,6.64,0,0,0-.5,2.41q0,1.12,0,2.38,0,2,0,4.13a32.52,32.52,0,0,0,.25,4.12,20.42,20.42,0,0,0,3,10.57q1.25,1.92,2.75,4a46.81,46.81,0,0,0,3.26,3.93,18.4,18.4,0,0,0,5.76,3.66q4,1.52,8,2.81t8.26,2.33a12.63,12.63,0,0,0,2.63.62,6.85,6.85,0,0,0,2.63-.12,35.8,35.8,0,0,0,7.26-1.06c1.34-.22,2.59-0.48,3.76-0.77a17.77,17.77,0,0,1,3.76-.52,3.58,3.58,0,0,0,1.5-.3q3-1.36,5.88-2.58a18.53,18.53,0,0,0,5.38-3.54q2.26-2.07,4.38-4.12t4.13-4.11a17.2,17.2,0,0,0,2.13-2.05q0.88-1,1.88-2.29a16.16,16.16,0,0,0,2-3,11,11,0,0,0,1-3.52c0.17-.84.33-1.55,0.5-2.14a2.31,2.31,0,0,1,1.5-1.4,3.76,3.76,0,0,0,1.25-1.77,27.82,27.82,0,0,0,2.38-5,35.6,35.6,0,0,0,1.38-5.28c0.16-1.51.29-3,.37-4.64s0.21-3.13.38-4.64a22.45,22.45,0,0,0-.25-3.37,24,24,0,0,1-.25-3.63,8.61,8.61,0,0,1-.5-2.75q-0.5-3-1-6a32.78,32.78,0,0,0-1.5-5.74,13.14,13.14,0,0,1-.75-6.74v-2a3.88,3.88,0,0,0-1.13.15,2.76,2.76,0,0,1-.88.14,1.36,1.36,0,0,0-.5-0.61,0.39,0.39,0,0,1-.25-0.37,20.4,20.4,0,0,1-.5-3.75,7.78,7.78,0,0,0-1.25-4.23q-1.75-2.47-3.38-4.94t-3.38-4.93a15.42,15.42,0,0,0-1.63-2.21q-0.88-1-1.88-2.21a45.38,45.38,0,0,0-3-3.55,43.61,43.61,0,0,1-3-3.54,14.86,14.86,0,0,0-3.76-3.39,7.69,7.69,0,0,0-1.38-.71,7.14,7.14,0,0,1-1.38-.7q-1.75-.69-3.25-1.39a10,10,0,0,1-2.76-1.9,19,19,0,0,0-7.26-3.47,40.12,40.12,0,0,1-9.27-3.09,9.25,9.25,0,0,0-2.76-.87,8.86,8.86,0,0,1-1.5-.05,9.21,9.21,0,0,0-1.5-.05q-3.51.43-7,.62l-7,.4a9.24,9.24,0,0,1-2.63.28c-0.92,0-1.8,0-2.63,0a39.38,39.38,0,0,0-8.76,2.06,53.26,53.26,0,0,0-8.26,3.83q-2.25,1.42-4.51,2.58l-4.51,2.34a15.43,15.43,0,0,0-2.25,1.3,7.22,7.22,0,0,0-1.75,1.77q-2.76,2.72-5.13,5.29t-5.13,5.3a55,55,0,0,0-10,15.38,19.52,19.52,0,0,1-1.25,3c-0.5,1-1,2-1.5,3q-1.26,3.37-2,5.94-0.75,4.33-1.38,8.39a39,39,0,0,0-.38,8.3,11.3,11.3,0,0,1-.75,4.33,7.17,7.17,0,0,0,.25,5,6.69,6.69,0,0,1,.5,3v57.09a6.84,6.84,0,0,0-.75.95,6.84,6.84,0,0,1-.75.95,17.09,17.09,0,0,1,.5,4.21,33.31,33.31,0,0,0,.25,4.23V374a6.89,6.89,0,0,0,.5,2.71,14.9,14.9,0,0,1,.25,3.23v32.55a22,22,0,0,1-.5,3.8,17.44,17.44,0,0,0-.38,2,5.25,5.25,0,0,0,.13,2,33.67,33.67,0,0,1,.63,4.95q0.12,2.5.12,5v4.51a8.44,8.44,0,0,1-3.25,6.56,18.66,18.66,0,0,1-3.5,2.08,10.36,10.36,0,0,1-2.88.9q-1.63.29-3.13,0.68a1.19,1.19,0,0,1-.88.21,2.74,2.74,0,0,0-.88,0,19.06,19.06,0,0,1-6.76-3.83,8.35,8.35,0,0,1-3-5.69,21.38,21.38,0,0,0-3.78-9.87,19.6,19.6,0,0,0-.25-4,33.06,33.06,0,0,0-1.51-3.85,73.77,73.77,0,0,0-3.79-8.86,30.21,30.21,0,0,1-1.89-5.8q-0.63-2.94-1.14-6.14v-4.51l-0.5-.95a14.45,14.45,0,0,1-2.78-4,20.28,20.28,0,0,1-1.51-4.59,27.08,27.08,0,0,1-.76-3.17,18.35,18.35,0,0,0-.76-2.92,6.47,6.47,0,0,1-.38-0.83,7.37,7.37,0,0,0-.37-0.83c-0.34-.63-0.63-1.22-0.88-1.78s-0.55-1.14-.88-1.78a20.36,20.36,0,0,1-1.26-4.61,20.82,20.82,0,0,0-1.51-5.84q-1.26-2.86-2.27-5.62a58,58,0,0,0-2.27-5.37,1,1,0,0,0-1.76-.54,0.57,0.57,0,0,1-.13.39,1.06,1.06,0,0,0-.12.64,27,27,0,0,0-.13,4.52q0.12,2.24.38,4.46a25.36,25.36,0,0,1,.5,8.71q0,0.75,0,1.63a5.48,5.48,0,0,1-.25,1.66,9.9,9.9,0,0,0-.5,3.06c0,1,0,2,0,3v13c0,0.84,0,1.72,0,2.63a7.49,7.49,0,0,1-.5,2.69,16.63,16.63,0,0,0-.5,3.94,30.1,30.1,0,0,0,.25,3.85,47.49,47.49,0,0,1,.63,5.81q0.13,2.86.13,5.62a123.46,123.46,0,0,0,0,15.78q0,1.25,0,2.13a10.51,10.51,0,0,0,.25,2.1q1,6.64-4.21,12.27a35.4,35.4,0,0,0-3.22,3.64,2.84,2.84,0,0,0-.86.23,2.88,2.88,0,0,1-.87.23,25.46,25.46,0,0,1-7.68-1.56,2.22,2.22,0,0,1-1.24-.85,0.19,0.19,0,0,1-.25-0.22q-1.24-1.35-2.11-2.24a7,7,0,0,1-1.36-2,7.5,7.5,0,0,1-.62-2.55,26.14,26.14,0,0,1,.12-4.27q0.5-6.32.75-12.49a102.57,102.57,0,0,0-.25-12.36q-0.5-8.44-.5-16.71T982.44,380v-28c0-1.34,0-2.67.13-4a14.9,14.9,0,0,1,.88-4.12,5.77,5.77,0,0,1-.88-2.77q-0.13-1.61-.13-3.11a47.19,47.19,0,0,0-.5-9.45,21.27,21.27,0,0,1-.38-5.08q0.13-2.39.13-5.15a12,12,0,0,1,1-5.14q0-1.25,0-2.63a13.1,13.1,0,0,0-.25-2.6c0-1,0-2,.13-3.15a15.52,15.52,0,0,0-.13-3.36,13,13,0,0,0-.25-3,29.36,29.36,0,0,1-.25-10.23,30,30,0,0,1,.25-3.91q0.25-1.91.5-3.94,1.23-1.9,2.23-3.79t2.23-3.79a9.72,9.72,0,0,1,4.09-1.89,13.17,13.17,0,0,1,4.08-.12,17.27,17.27,0,0,1,5.69,1.57,5.47,5.47,0,0,1,1.36,1.09,5.32,5.32,0,0,0,1.36,1.09,2,2,0,0,1,.75,1.54,5.42,5.42,0,0,0,.5,2.07q3.78,2.31,3.79,8.57v2q1.51,4.33,2.27,6.75l4,11.56q2,5.78,4.29,11.29a76.24,76.24,0,0,1,3.78,10.22q1.51,5.23,2.78,10.84a57.5,57.5,0,0,0,1.89,6.68q1.14,3.26,2.4,6.63,0.51,1.7,1,3.15l1,2.9a53.77,53.77,0,0,1,1,5.4,3.72,3.72,0,0,0,1.39,1.49,3.05,3.05,0,0,0,2.4.13,7.58,7.58,0,0,1,.13-1.26,8.37,8.37,0,0,0,.12-1.27V294.76a21.12,21.12,0,0,1,0-6.51q0.5-3.3,1-6.62a58.28,58.28,0,0,1,3.76-13.9q0.75-2.33,1.63-4.67t1.63-4.67a47.58,47.58,0,0,1,4.63-9.84,86.45,86.45,0,0,1,6.38-9,32.09,32.09,0,0,0,4.51-5.68,10.51,10.51,0,0,1,1.25-2q0.75-.94,1.5-2a12.48,12.48,0,0,1,3.26-3.3l7.51-5.91a58.73,58.73,0,0,1,5.13-4.06,52.37,52.37,0,0,1,5.38-3.31,21.16,21.16,0,0,0,3.26-1.51q1.5-.87,3.25-1.75a70,70,0,0,1,14.77-6.06q3.5-1,7.26-1.73a37.61,37.61,0,0,1,7.51-.71q3.76-.22,7.64-0.56a45.19,45.19,0,0,1,7.64,0,70.61,70.61,0,0,1,12.27.93,15.48,15.48,0,0,1,6.26,1.74,26,26,0,0,0,6.76,2.75q2,0.68,3.76,1.38a12.69,12.69,0,0,1,3.25,1.9c1.67,1.12,3.29,2.15,4.88,3.11s3.21,2,4.88,3.13q3.25,2.68,6.51,5.61,2.5,2,5,4.16a39.27,39.27,0,0,1,4.51,4.68,56.27,56.27,0,0,1,6,8.44q1,2,2,3.73t2.25,3.74a64.66,64.66,0,0,1,3.76,7.74q1.75,4.5,3.13,9t2.63,9a18.29,18.29,0,0,1,1,6.26,22,22,0,0,0,.25,3.38,24.45,24.45,0,0,1,.25,3.63c0.16,1,.29,2,0.37,3s0.12,2.09.12,3.26v12.77ZM990.71,325.84a1.17,1.17,0,0,0,1.5.81,1.76,1.76,0,0,0-.75-1.16l-0.75.09v0.25Zm1.5,65.41a15.35,15.35,0,0,0,.88-1.36,1.88,1.88,0,0,0-.38-1.21,1.93,1.93,0,0,1-.5,1.32A0.9,0.9,0,0,0,992.21,391.25Zm0.25-33.58a1,1,0,0,0,1-1.13l-0.25-.22-0.25,0-0.75.84A0.62,0.62,0,0,0,992.46,357.67Zm1.75,16.56a1.37,1.37,0,0,0-.75,1.6,1.84,1.84,0,0,0,1.25-1.4l-0.25-.22Zm1.37-82a4.56,4.56,0,0,0-1.75.72C994.67,293.8,995.25,293.57,995.59,292.18Zm-0.87,21.89c0.67-.75.5-1.57-0.5-2.45a6.86,6.86,0,0,1-.13,1.52,4.21,4.21,0,0,0-.12,1l0.25,0.22A0.83,0.83,0,0,0,994.71,314.08ZM996,418.58q-0.25,0,.25-0.53a1.35,1.35,0,0,0-1.75,0c-0.34.38-.34,0.63,0,0.75Q995,419.71,996,418.58Zm0.57-71.68a3.51,3.51,0,0,0,2-2.25,9.29,9.29,0,0,0-2.5.56v1A1.18,1.18,0,0,0,996.54,346.91Zm0.28-4.29a1.63,1.63,0,0,0-.75,1.22V345a29.4,29.4,0,0,0,1.5-2.68A1.15,1.15,0,0,0,996.82,342.61ZM997.05,301a1.71,1.71,0,0,0-.75,1.35c0-.17.25,0,0.75,0.41q1.5-.68.5-1.56L997.3,301Zm0,15.28a6.88,6.88,0,0,0,.25,1.72l1-1.12a19.84,19.84,0,0,1-.75-2.66l-0.75.84A2.63,2.63,0,0,1,997,316.3Zm0.68,18.45a3.47,3.47,0,0,1-.5.81c-0.17.19-.09,0.43,0.25,0.72a2.29,2.29,0,0,0,2.25-.52,1.94,1.94,0,0,0-1-.51A1.87,1.87,0,0,1,997.72,334.74Zm2.76-26.62a13.6,13.6,0,0,0-1.88-1.78,1.67,1.67,0,0,0-1.38.41l1.13,1a13.52,13.52,0,0,1,1.38,1.46A4.6,4.6,0,0,1,1000.47,308.12Zm0,31.3a1.1,1.1,0,0,0-1.5-.57,1.25,1.25,0,0,0,1,1.13l0.5-.06v-0.5Zm0.5-24.85a1.26,1.26,0,0,0,.5-1.31c-0.17,0-.25,0-0.25-0.1s-0.09-.12-0.25-0.1l-0.25,0a1.64,1.64,0,0,0-.5,1.06A1.19,1.19,0,0,0,1001,314.57Zm1.75-3.71a1.86,1.86,0,0,0-.25-1.22,1.16,1.16,0,0,0-.75.34l-0.5.56a0.61,0.61,0,0,1,.25.35,0.58,0.58,0,0,0,.25.35C1001.89,311.55,1002.23,311.42,1002.73,310.86Zm0.5,28.48a2.5,2.5,0,0,1,1-.37,1,1,0,0,0,.75-0.84c0-.16-0.59-0.35-1.75-0.54a1.36,1.36,0,0,1-.37.92C1002.6,338.79,1002.73,339.07,1003.23,339.34Zm0-1.75a17.68,17.68,0,0,0,2.25-2,0.45,0.45,0,0,1-.37-0.08,0.48,0.48,0,0,0-.37-0.08C1004.06,335.49,1003.56,336.22,1003.23,337.59Zm5.26-16.89q1.75,0.3,2.25-.26a8.47,8.47,0,0,0-1.25-1.36,8.4,8.4,0,0,1-1.25-1.36,0.63,0.63,0,0,0-.37-0.21,0.6,0.6,0,0,1-.38-0.21,2.41,2.41,0,0,0-1.5.18,10.59,10.59,0,0,1,1.5,1.58,2.19,2.19,0,0,1,.63.8A5.29,5.29,0,0,0,1008.49,320.7Zm0.25,7.23,0.5-1.06a0.77,0.77,0,0,0-.25-1,9.82,9.82,0,0,0-1.5.3,2.18,2.18,0,0,0-1.25,1A2.06,2.06,0,0,0,1008.74,327.93Zm3,10.67a0.78,0.78,0,0,0-1-.88,0.47,0.47,0,0,0-.38.29,0.47,0.47,0,0,1-.37.3c0,1,.25,1.47.75,1.41A1.75,1.75,0,0,0,1011.74,338.6Zm18.78,36.49a0.84,0.84,0,0,0,.88-0.09,0.55,0.55,0,0,0,.13-0.76q0-1.75-2.5-1.24A2.68,2.68,0,0,0,1030.52,375.09Zm-1.25,4.39a2,2,0,0,0,1.5-1.41c0-.16,0-0.24-0.12-0.24s-0.13-.07-0.13-0.24l-0.5.05A2.67,2.67,0,0,0,1029.27,379.48Zm7.76,24.73a1.88,1.88,0,0,0,0-2.25,9.67,9.67,0,0,0-2.13,1.34,1.33,1.33,0,0,0-.38.92,1,1,0,0,1,1.13.14A1.08,1.08,0,0,0,1037,404.21Zm8.26-2.34a1.67,1.67,0,0,0,1-1.35c0-.17,0-0.25-0.13-0.24s-0.12-.07-0.12-0.24a9,9,0,0,0-1.63-.21,8.65,8.65,0,0,1-1.63-.22q-2.25,1.23-2.63,1.52a0.93,0.93,0,0,0-.37.79,3.19,3.19,0,0,0,1,.65c1-.43,1.67-0.71,2-0.83A7.2,7.2,0,0,1,1045.29,401.87Zm-3.76,4.88a4.55,4.55,0,0,1,1-.85l-0.75-.67L1041,406C1041,406.89,1041.2,407.12,1041.54,406.75Zm2-35.5a1.6,1.6,0,0,0-.5,1.05l0.25,0.22a0.2,0.2,0,0,0,.25.22l1-.1V371.9A3.5,3.5,0,0,0,1043.54,371.25Zm5-81.87a0.56,0.56,0,0,0,.37-0.16,0.56,0.56,0,0,1,.38-0.16,7.78,7.78,0,0,0-.5-2,1.35,1.35,0,0,1-1.13.11,1,1,0,0,0-1.13.36Zm-1.5,45.46a2.59,2.59,0,0,0,.13.86,2.77,2.77,0,0,1,.12.86l0.5,0a1.8,1.8,0,0,1,.12-0.76A1.81,1.81,0,0,0,1048,335a0.66,0.66,0,0,0-.37-0.22,0.6,0.6,0,0,1-.38-0.21Zm3,8a3.27,3.27,0,0,1-1.25-1.38,1.35,1.35,0,0,1-.38-0.59A6.46,6.46,0,0,0,1048,340c0-.5-0.34-0.38-1,0.35a9.79,9.79,0,0,0,1.75,2.58Zm-1.75,69a0.56,0.56,0,0,0,.37-0.16,0.56,0.56,0,0,1,.38-0.16,0.92,0.92,0,0,1-.25-0.73,0.73,0.73,0,0,0-.75-0.3,3.42,3.42,0,0,0-.75,1.2,1.09,1.09,0,0,1,.5.08A1,1,0,0,0,1048.3,411.84Zm1-86.48c-0.84-.25-1.25,0-1.25.62l0.5,0.45a1.61,1.61,0,0,0,1-.6Zm0,49.33-0.25-.23a1.62,1.62,0,0,0-1,.6v0.25l0.5,0.45a0.79,0.79,0,0,1,.37-0.29,0.8,0.8,0,0,0,.38-0.29v-0.5Zm77.62-95.11,0.25,0.24h0.25c0.83-.88.66-1.7-0.5-2.48v2.25Zm3.26,1.07h-0.25A6.72,6.72,0,0,0,1130,282a8.66,8.66,0,0,1,.13,1.62,1.87,1.87,0,0,0,1-.81,5.87,5.87,0,0,0-.12-1.12c-0.09-.41-0.21-0.95-0.38-1.61Zm3.25-6.68a8.17,8.17,0,0,0-1.88-1.78,2.33,2.33,0,0,0-1.38.45,18.67,18.67,0,0,0,2.25,2.39Zm1.25,1.94a1.5,1.5,0,0,0-.5.78,0.68,0.68,0,0,0,.25.49q0.5,0.48,1-.3a0.71,0.71,0,0,0-.25-1h-0.5Zm-0.5,86.66a1.28,1.28,0,0,0,1.25.18,1.62,1.62,0,0,1-.38-0.48,2.15,2.15,0,0,0-.38-0.48l-0.5,0v0.75Zm8-3.15a2.87,2.87,0,0,0,2,1.66,6.91,6.91,0,0,0-.13-1.37,5.53,5.53,0,0,1-.12-1.12l-1,0c-0.34,0-.5.11-0.5,0.27A0.77,0.77,0,0,1,1142.19,359.42Zm1.75-.83a7,7,0,0,0,1.38.69,7.6,7.6,0,0,1,1.38.69,0.63,0.63,0,0,1-.13-0.62c0.08-.09,0-0.21-0.12-0.37C1145.95,358.33,1145.11,358.2,1143.94,358.59Zm5.51,3.51a1.31,1.31,0,0,0,.5-1.52,1.65,1.65,0,0,0-1.25,1.31l0.25,0.24C1149,362.45,1149.11,362.45,1149.45,362.1Zm3.51-1.15a1.17,1.17,0,0,0,.63-0.77,2.32,2.32,0,0,1,.63-1l-0.75-.72c-0.17-.16-0.42-0.06-0.75.28A3.33,3.33,0,0,0,1153,360.95Zm52.33-81.13v-1.25c-0.17-.17-0.92-0.75-2.25-1.73v1A9.28,9.28,0,0,0,1205.29,279.82Zm-2-8.5a0.49,0.49,0,0,0,.12.37,0.52,0.52,0,0,1,.12.37,1,1,0,0,0,.75.25c0.33,0.33.5,0.08,0.5-.76a1.34,1.34,0,0,0-1-.74A0.44,0.44,0,0,0,1203.28,271.32Zm2.5,4c0.33-.83.17-1.25-0.5-1.25a0.73,0.73,0,0,0-.5.25,2.76,2.76,0,0,0,.25,1.25,0.41,0.41,0,0,1,.5-0.13C1205.7,275.52,1205.79,275.48,1205.79,275.31Z" transform="translate(-7.95 -4.69)"/></svg>